Oxygen-Bold.ufo
<glyph name="numbersign" format="1">
  <advance width="1211"/>
  <unicode hex="0023"/>
  <outline>
    <contour>
      <point x="1172" y="1084" type="line"/>
      <point x="1161" y="888" type="line"/>
      <point x="940" y="888" type="line"/>
      <point x="883" y="598" type="line"/>
      <point x="1094" y="598" type="line"/>
      <point x="1084" y="402" type="line"/>
      <point x="849" y="402" type="line"/>
      <point x="770" y="-12" type="line"/>
      <point x="559" y="-12" type="line"/>
      <point x="637" y="402" type="line"/>
      <point x="462" y="402" type="line"/>
      <point x="383" y="-12" type="line"/>
      <point x="174" y="-12" type="line"/>
      <point x="252" y="402" type="line"/>
      <point x="40" y="402" type="line"/>
      <point x="48" y="598" type="line"/>
      <point x="289" y="598" type="line"/>
      <point x="342" y="887" type="line"/>
      <point x="119" y="887" type="line"/>
      <point x="126" y="1084" type="line"/>
      <point x="376" y="1084" type="line"/>
      <point x="455" y="1457" type="line"/>
      <point x="665" y="1457" type="line"/>
      <point x="590" y="1084" type="line"/>
      <point x="769" y="1084" type="line"/>
      <point x="844" y="1457" type="line"/>
      <point x="1054" y="1457" type="line"/>
      <point x="977" y="1084" type="line"/>
    </contour>
    <contour>
      <point x="731" y="888" type="line"/>
      <point x="552" y="888" type="line"/>
      <point x="497" y="598" type="line"/>
      <point x="676" y="598" type="line"/>
    </contour>
  </outline>
</glyph>
<glyph name="dollar" format="1">
  <advance width="1178"/>
  <unicode hex="0024"/>
  <outline>
    <contour>
      <point x="544" y="1596" type="line"/>
      <point x="663" y="1596" type="line"/>
      <point x="663" y="1441" type="line"/>
      <point x="826" y="1434"/>
      <point x="965" y="1403"/>
      <point x="1079" y="1338" type="curve"/>
      <point x="994" y="1121" type="line"/>
      <point x="899" y="1169"/>
      <point x="789" y="1196"/>
      <point x="663" y="1204" type="curve"/>
      <point x="663" y="866" type="line"/>
      <point x="683.247932971" y="858.262397043"/>
      <point x="702.993851097" y="850.692132368"/>
      <point x="722.204476881" y="843.211684531" type="curve" smooth="yes"/>
      <point x="968.649373929" y="747.248220467"/>
      <point x="1127.0" y="666.066116512"/>
      <point x="1127" y="436" type="curve" smooth="yes"/>
      <point x="1127" y="194"/>
      <point x="941" y="58"/>
      <point x="663" y="34" type="curve"/>
      <point x="663" y="-158" type="line"/>
      <point x="544" y="-158" type="line"/>
      <point x="544" y="31" type="line"/>
      <point x="355" y="34"/>
      <point x="203" y="68"/>
      <point x="77" y="136" type="curve"/>
      <point x="117" y="376" type="line"/>
      <point x="221" y="318"/>
      <point x="403" y="267"/>
      <point x="544" y="261" type="curve"/>
      <point x="544" y="624" type="line"/>
      <point x="449" y="657" type="line"/>
      <point x="223" y="738"/>
      <point x="82" y="844"/>
      <point x="82" y="1058" type="curve" smooth="yes"/>
      <point x="82" y="1288"/>
      <point x="274" y="1420"/>
      <point x="544" y="1439" type="curve"/>
    </contour>
    <contour>
      <point x="544" y="912" type="curve"/>
      <point x="544" y="1202" type="line"/>
      <point x="442" y="1191"/>
      <point x="382" y="1151"/>
      <point x="382" y="1072" type="curve" smooth="yes"/>
      <point x="382.0" y="989.952478468"/>
      <point x="431.03493291" y="956.161557578"/>
      <point x="510.564730924" y="924.620402406" type="curve" smooth="yes"/>
      <point x="521.181119867" y="920.40999097"/>
      <point x="532.340910017" y="916.239669085"/>
    </contour>
    <contour>
      <point x="663" y="580" type="curve"/>
      <point x="663" y="267" type="line"/>
      <point x="768" y="283"/>
      <point x="828" y="329"/>
      <point x="828" y="411" type="curve" smooth="yes"/>
      <point x="828.0" y="489.363638878"/>
      <point x="776.456108809" y="530.45707951"/>
      <point x="694.552768083" y="566.763132435" type="curve" smooth="yes"/>
      <point x="684.481130527" y="571.227680558"/>
      <point x="673.950410366" y="575.619835854"/>
    </contour>
  </outline>
</glyph>
<glyph name="asterisk" format="1">
  <advance width="1103"/>
  <unicode hex="002A"/>
  <outline>
    <contour>
      <point x="673" y="1500" type="line"/>
      <point x="639" y="1142" type="line"/>
      <point x="983" y="1269" type="line"/>
      <point x="1048" y="1049" type="line"/>
      <point x="702" y="975" type="line"/>
      <point x="944" y="678" type="line"/>
      <point x="727" y="557" type="line"/>
      <point x="550" y="868" type="line"/>
      <point x="382" y="558" type="line"/>
      <point x="161" y="678" type="line"/>
      <point x="402" y="975" type="line"/>
      <point x="57" y="1050" type="line"/>
      <point x="125" y="1269" type="line"/>
      <point x="465" y="1142" type="line"/>
      <point x="431" y="1500" type="line"/>
    </contour>
  </outline>
</glyph>
<glyph name="plus" format="1">
  <advance width="1198"/>
  <unicode hex="002B"/>
  <outline>
    <contour>
      <point x="710" y="754" type="line"/>
      <point x="1122" y="754" type="line"/>
      <point x="1122" y="545" type="line"/>
      <point x="709" y="545" type="line"/>
      <point x="709" y="144" type="line"/>
      <point x="490" y="144" type="line"/>
      <point x="490" y="545" type="line"/>
      <point x="78" y="545" type="line"/>
      <point x="78" y="754" type="line"/>
      <point x="491" y="754" type="line"/>
      <point x="491" y="1156" type="line"/>
      <point x="710" y="1156" type="line"/>
    </contour>
  </outline>
</glyph>
<glyph name="zero" format="1">
  <advance width="1314"/>
  <unicode hex="0030"/>
  <outline>
    <contour>
      <point x="661" y="-20" type="curve" smooth="yes"/>
      <point x="237" y="-20"/>
      <point x="98" y="343"/>
      <point x="98" y="726" type="curve" smooth="yes"/>
      <point x="98" y="1112"/>
      <point x="239" y="1478"/>
      <point x="661" y="1478" type="curve" smooth="yes"/>
      <point x="1083" y="1478"/>
      <point x="1223" y="1109"/>
      <point x="1223" y="726" type="curve" smooth="yes"/>
      <point x="1223" y="343"/>
      <point x="1085" y="-20"/>
    </contour>
    <contour>
      <point x="661" y="1252" type="curve" smooth="yes"/>
      <point x="435" y="1252"/>
      <point x="397" y="985"/>
      <point x="395" y="739" type="curve"/>
      <point x="395" y="486"/>
      <point x="434" y="206"/>
      <point x="662" y="206" type="curve" smooth="yes"/>
      <point x="889" y="206"/>
      <point x="926" y="483"/>
      <point x="926" y="734" type="curve" smooth="yes"/>
      <point x="926" y="984"/>
      <point x="888" y="1252"/>
    </contour>
  </outline>
</glyph>
<glyph name="one" format="1">
  <advance width="706"/>
  <unicode hex="0031"/>
  <outline>
    <contour>
      <point x="347" y="1447" type="line"/>
      <point x="587" y="1447" type="line"/>
      <point x="587" y="1" type="line"/>
      <point x="309" y="1" type="line"/>
      <point x="309" y="1189" type="line"/>
      <point x="45" y="1080" type="line"/>
      <point x="45" y="1292" type="line"/>
    </contour>
  </outline>
</glyph>
<glyph name="two" format="1">
  <advance width="1033"/>
  <unicode hex="0032"/>
  <outline>
    <contour>
      <point x="55" y="0" type="line"/>
      <point x="925" y="0" type="line"/>
      <point x="945" y="211" type="line"/>
      <point x="389" y="211" type="line"/>
      <point x="678" y="507" type="line" smooth="yes"/>
      <point x="796" y="629"/>
      <point x="960" y="813"/>
      <point x="960" y="1040" type="curve" smooth="yes"/>
      <point x="960" y="1320"/>
      <point x="742" y="1478"/>
      <point x="461" y="1478" type="curve" smooth="yes"/>
      <point x="280" y="1478"/>
      <point x="160" y="1429"/>
      <point x="52" y="1335" type="curve"/>
      <point x="133" y="1122" type="line"/>
      <point x="203" y="1181"/>
      <point x="315" y="1252"/>
      <point x="445" y="1252" type="curve" smooth="yes"/>
      <point x="565" y="1252"/>
      <point x="666" y="1156"/>
      <point x="666" y="1041" type="curve" smooth="yes"/>
      <point x="666" y="910"/>
      <point x="596" y="811"/>
      <point x="510" y="720" type="curve" smooth="yes"/>
      <point x="55" y="233" type="line"/>
    </contour>
  </outline>
</glyph>
<glyph name="four" format="1">
  <advance width="1267"/>
  <unicode hex="0034"/>
  <outline>
    <contour>
      <point x="1206" y="309" type="line"/>
      <point x="1040" y="309" type="line"/>
      <point x="1040" y="0" type="line"/>
      <point x="742" y="0" type="line"/>
      <point x="742" y="309" type="line"/>
      <point x="86" y="309" type="line"/>
      <point x="86" y="496" type="line"/>
      <point x="658" y="1445" type="line"/>
      <point x="1040" y="1445" type="line"/>
      <point x="1040" y="525" type="line"/>
      <point x="1219" y="525" type="line"/>
    </contour>
    <contour>
      <point x="743" y="1179" type="line"/>
      <point x="374" y="524" type="line"/>
      <point x="743" y="524" type="line"/>
    </contour>
  </outline>
</glyph>
<glyph name="five" format="1">
  <advance width="1125"/>
  <unicode hex="0035"/>
  <outline>
    <contour>
      <point x="1000" y="1445" type="line"/>
      <point x="985" y="1225" type="line"/>
      <point x="456" y="1225" type="line"/>
      <point x="443" y="900" type="line"/>
      <point x="499" y="926"/>
      <point x="555" y="938"/>
      <point x="607" y="938" type="curve" smooth="yes"/>
      <point x="866" y="938"/>
      <point x="1054" y="750"/>
      <point x="1054" y="465" type="curve" smooth="yes"/>
      <point x="1054" y="178"/>
      <point x="878" y="-20"/>
      <point x="548" y="-20" type="curve" smooth="yes"/>
      <point x="315" y="-20"/>
      <point x="99" y="121"/>
      <point x="99" y="121" type="curve"/>
      <point x="184" y="324" type="line"/>
      <point x="184" y="324"/>
      <point x="341" y="206"/>
      <point x="510" y="206" type="curve" smooth="yes"/>
      <point x="695" y="206"/>
      <point x="771" y="321"/>
      <point x="771" y="469" type="curve" smooth="yes"/>
      <point x="771" y="625"/>
      <point x="676" y="720"/>
      <point x="560" y="720" type="curve" smooth="yes"/>
      <point x="490" y="720"/>
      <point x="412" y="685"/>
      <point x="343" y="609" type="curve"/>
      <point x="157" y="648" type="line"/>
      <point x="194" y="1445" type="line"/>
    </contour>
  </outline>
</glyph>
<glyph name="six" format="1">
  <advance width="1207"/>
  <unicode hex="0036"/>
  <outline>
    <contour>
      <point x="670" y="918" type="curve" smooth="yes"/>
      <point x="967" y="918"/>
      <point x="1175" y="734"/>
      <point x="1175" y="459" type="curve" smooth="yes"/>
      <point x="1175" y="164"/>
      <point x="932" y="-20"/>
      <point x="617" y="-20" type="curve" smooth="yes"/>
      <point x="292" y="-20"/>
      <point x="52" y="160"/>
      <point x="52" y="460" type="curve" smooth="yes"/>
      <point x="52" y="644"/>
      <point x="149" y="780"/>
      <point x="231" y="893" type="curve"/>
      <point x="649" y="1445" type="line"/>
      <point x="1010" y="1445" type="line"/>
      <point x="585" y="907" type="line"/>
      <point x="619" y="914"/>
      <point x="634" y="918"/>
    </contour>
    <contour>
      <point x="348" y="450" type="curve" smooth="yes"/>
      <point x="348" y="294"/>
      <point x="438" y="195"/>
      <point x="603" y="195" type="curve" smooth="yes"/>
      <point x="774" y="195"/>
      <point x="873" y="298"/>
      <point x="873" y="455" type="curve" smooth="yes"/>
      <point x="873" y="617"/>
      <point x="792" y="717"/>
      <point x="607" y="717" type="curve" smooth="yes"/>
      <point x="421" y="717"/>
      <point x="348" y="611"/>
    </contour>
  </outline>
</glyph>
<glyph name="seven" format="1">
  <advance width="1031"/>
  <unicode hex="0037"/>
  <outline>
    <contour>
      <point x="217" y="-1" type="line"/>
      <point x="686" y="1230" type="line"/>
      <point x="54" y="1230" type="line"/>
      <point x="54" y="1446" type="line"/>
      <point x="1015" y="1446" type="line"/>
      <point x="1015" y="1283" type="line"/>
      <point x="513" y="-1" type="line"/>
    </contour>
  </outline>
</glyph>
<glyph name="less" format="1">
  <advance width="1203"/>
  <unicode hex="003C"/>
  <outline>
    <contour>
      <point x="1088" y="212" type="line"/>
      <point x="119" y="658" type="line"/>
      <point x="119" y="791" type="line"/>
      <point x="1088" y="1270" type="line"/>
      <point x="1088" y="1048" type="line"/>
      <point x="407" y="730" type="line"/>
      <point x="1088" y="433" type="line"/>
    </contour>
  </outline>
</glyph>
<glyph name="greater" format="1">
  <advance width="1203"/>
  <unicode hex="003E"/>
  <outline>
    <contour>
      <point x="120" y="433" type="line"/>
      <point x="801" y="730" type="line"/>
      <point x="120" y="1048" type="line"/>
      <point x="120" y="1270" type="line"/>
      <point x="1090" y="791" type="line"/>
      <point x="1090" y="658" type="line"/>
      <point x="120" y="212" type="line"/>
    </contour>
  </outline>
</glyph>
<glyph name="at" format="1">
  <advance width="1661"/>
  <unicode hex="0040"/>
  <outline>
    <contour>
      <point x="1609" y="674" type="curve" smooth="yes"/>
      <point x="1609.0" y="355.896653268"/>
      <point x="1394.239109" y="122.0"/>
      <point x="1161" y="122" type="curve" smooth="yes"/>
      <point x="1057" y="122"/>
      <point x="979" y="181"/>
      <point x="980" y="356" type="curve"/>
      <point x="930" y="223"/>
      <point x="830" y="139"/>
      <point x="725" y="139" type="curve" smooth="yes"/>
      <point x="526" y="139"/>
      <point x="417" y="293"/>
      <point x="417" y="481" type="curve" smooth="yes"/>
      <point x="417" y="767"/>
      <point x="638" y="1010"/>
      <point x="916" y="1010" type="curve" smooth="yes"/>
      <point x="1041" y="1010"/>
      <point x="1145" y="975"/>
      <point x="1236" y="942" type="curve"/>
      <point x="1204" y="780"/>
      <point x="1157" y="615"/>
      <point x="1129" y="456" type="curve" smooth="yes"/>
      <point x="1101.625" y="287.1875"/>
      <point x="1121.24561404" y="271.0"/>
      <point x="1184" y="271" type="curve" smooth="yes"/>
      <point x="1333" y="271"/>
      <point x="1445" y="495"/>
      <point x="1445" y="676" type="curve" smooth="yes"/>
      <point x="1445" y="1002"/>
      <point x="1204" y="1217"/>
      <point x="875" y="1217" type="curve" smooth="yes"/>
      <point x="385" y="1217"/>
      <point x="228" y="774"/>
      <point x="228" y="554" type="curve" smooth="yes"/>
      <point x="228" y="136"/>
      <point x="541" y="-81"/>
      <point x="890" y="-81" type="curve" smooth="yes"/>
      <point x="1066" y="-81"/>
      <point x="1251" y="-37"/>
      <point x="1410" y="87" type="curve"/>
      <point x="1472" y="-20" type="line"/>
      <point x="1330" y="-142"/>
      <point x="1148" y="-230"/>
      <point x="893" y="-230" type="curve" smooth="yes"/>
      <point x="400" y="-230"/>
      <point x="53" y="88"/>
      <point x="53" y="571" type="curve" smooth="yes"/>
      <point x="53" y="1030"/>
      <point x="406" y="1369"/>
      <point x="873" y="1369" type="curve" smooth="yes"/>
      <point x="1290" y="1369"/>
      <point x="1609" y="1084"/>
    </contour>
    <contour>
      <point x="616" y="472" type="curve" smooth="yes"/>
      <point x="616" y="379"/>
      <point x="643" y="284"/>
      <point x="722" y="284" type="curve" smooth="yes"/>
      <point x="867.444218814" y="284.0"/>
      <point x="950.580736693" y="496.513765692"/>
      <point x="999.21054986" y="692.909223647" type="curve" smooth="yes"/>
      <point x="1015.77970881" y="759.825120475"/>
      <point x="1028.34297597" y="824.869839013"/>
      <point x="1038" y="879" type="curve"/>
      <point x="1003" y="884"/>
      <point x="973" y="887"/>
      <point x="936" y="887" type="curve" smooth="yes"/>
      <point x="765" y="887"/>
      <point x="616" y="660"/>
    </contour>
  </outline>
</glyph>
<glyph name="A" format="1">
  <advance width="1378"/>
  <unicode hex="0041"/>
  <outline>
    <contour>
      <point x="1071" y="0" type="line"/>
      <point x="1383" y="0" type="line"/>
      <point x="858" y="1460" type="line"/>
      <point x="524" y="1460" type="line"/>
      <point x="-5" y="0" type="line"/>
      <point x="314" y="0" type="line"/>
      <point x="448" y="396" type="line"/>
      <point x="936" y="396" type="line"/>
    </contour>
    <contour>
      <point x="862" y="617" type="line"/>
      <point x="520" y="617" type="line"/>
      <point x="693" y="1182" type="line"/>
    </contour>
    <contour>
      <point x="689" y="1444" type="move" name="top"/>
    </contour>
    <contour>
      <point x="1240" y="10" type="move" name="ogonek"/>
    </contour>
  </outline>
</glyph>
<glyph name="B" format="1">
  <advance width="1351"/>
  <unicode hex="0042"/>
  <outline>
    <contour>
      <point x="458" y="657" type="line"/>
      <point x="458" y="227" type="line"/>
      <point x="668" y="227" type="line" smooth="yes"/>
      <point x="859" y="227"/>
      <point x="959" y="289"/>
      <point x="959" y="447" type="curve" smooth="yes"/>
      <point x="959" y="599"/>
      <point x="866" y="657"/>
      <point x="673" y="657" type="curve" smooth="yes"/>
    </contour>
    <contour>
      <point x="458" y="880" type="line"/>
      <point x="662" y="880" type="line" smooth="yes"/>
      <point x="831" y="880"/>
      <point x="916" y="927"/>
      <point x="916" y="1053" type="curve" smooth="yes"/>
      <point x="916" y="1203"/>
      <point x="814" y="1231"/>
      <point x="613" y="1231" type="curve" smooth="yes"/>
      <point x="458" y="1231" type="line"/>
    </contour>
    <contour>
      <point x="154" y="1460" type="line"/>
      <point x="631" y="1460" type="line" smooth="yes"/>
      <point x="1007" y="1460"/>
      <point x="1214" y="1368"/>
      <point x="1214" y="1091" type="curve" smooth="yes"/>
      <point x="1214" y="991.059"/>
      <point x="1184" y="842"/>
      <point x="1020" y="778" type="curve"/>
      <point x="1190" y="725"/>
      <point x="1268" y="607"/>
      <point x="1268" y="426" type="curve" smooth="yes"/>
      <point x="1268" y="140"/>
      <point x="1042" y="0"/>
      <point x="706" y="0" type="curve" smooth="yes"/>
      <point x="154" y="0" type="line"/>
    </contour>
  </outline>
</glyph>
<glyph name="C" format="1">
  <advance width="1305"/>
  <unicode hex="0043"/>
  <outline>
    <contour>
      <point x="815" y="1238" type="curve" smooth="yes"/>
      <point x="568" y="1238"/>
      <point x="407" y="1043"/>
      <point x="407" y="729" type="curve" smooth="yes"/>
      <point x="407" y="394"/>
      <point x="562" y="222"/>
      <point x="814" y="222" type="curve" smooth="yes"/>
      <point x="932" y="222"/>
      <point x="1058" y="251"/>
      <point x="1182" y="315" type="curve"/>
      <point x="1220" y="81" type="line"/>
      <point x="1083" y="1"/>
      <point x="940" y="-20"/>
      <point x="793" y="-20" type="curve" smooth="yes"/>
      <point x="378" y="-20"/>
      <point x="96" y="251"/>
      <point x="96" y="737" type="curve" smooth="yes"/>
      <point x="96" y="1193"/>
      <point x="393" y="1480"/>
      <point x="808" y="1480" type="curve" smooth="yes"/>
      <point x="954" y="1480"/>
      <point x="1110" y="1450"/>
      <point x="1247" y="1358" type="curve"/>
      <point x="1157" y="1132" type="line"/>
      <point x="1059" y="1192"/>
      <point x="957" y="1238"/>
    </contour>
    <contour>
      <point x="653" y="1444" type="move" name="top"/>
    </contour>
    <contour>
      <point x="653" y="0" type="move" name="bottom"/>
    </contour>
  </outline>
</glyph>
<glyph name="D" format="1">
  <advance width="1518"/>
  <unicode hex="0044"/>
  <outline>
    <contour>
      <point x="1114" y="731" type="curve" smooth="yes"/>
      <point x="1114" y="412"/>
      <point x="946" y="239"/>
      <point x="629" y="239" type="curve" smooth="yes"/>
      <point x="458" y="239" type="line"/>
      <point x="458" y="1220" type="line"/>
      <point x="600" y="1220" type="line" smooth="yes"/>
      <point x="943" y="1220"/>
      <point x="1114" y="1078"/>
    </contour>
    <contour>
      <point x="1423" y="737" type="curve" smooth="yes"/>
      <point x="1423" y="1228"/>
      <point x="1097" y="1460"/>
      <point x="583" y="1460" type="curve" smooth="yes"/>
      <point x="154" y="1460" type="line"/>
      <point x="154" y="0" type="line"/>
      <point x="606" y="0" type="line" smooth="yes"/>
      <point x="1112" y="0"/>
      <point x="1423" y="261"/>
    </contour>
    <contour>
      <point x="759" y="1444" type="move" name="top"/>
    </contour>
    <contour>
      <point x="759" y="722" type="move" name="center"/>
    </contour>
  </outline>
</glyph>
<glyph name="E" format="1">
  <advance width="1149"/>
  <unicode hex="0045"/>
  <outline>
    <contour>
      <point x="154" y="0" type="line"/>
      <point x="1066" y="0" type="line"/>
      <point x="1066" y="237" type="line"/>
      <point x="458" y="237" type="line"/>
      <point x="458" y="646" type="line"/>
      <point x="1014" y="646" type="line"/>
      <point x="1014" y="882" type="line"/>
      <point x="458" y="882" type="line"/>
      <point x="458" y="1224" type="line"/>
      <point x="1044" y="1224" type="line"/>
      <point x="1056" y="1460" type="line"/>
      <point x="154" y="1460" type="line"/>
    </contour>
    <contour>
      <point x="575" y="1444" type="move" name="top"/>
    </contour>
    <contour>
      <point x="575" y="0" type="move" name="bottom"/>
    </contour>
    <contour>
      <point x="1034" y="10" type="move" name="ogonek"/>
    </contour>
  </outline>
</glyph>
<glyph name="F" format="1">
  <advance width="1091"/>
  <unicode hex="0046"/>
  <outline>
    <contour>
      <point x="456" y="0" type="line"/>
      <point x="456" y="608" type="line"/>
      <point x="997" y="608" type="line"/>
      <point x="997" y="843" type="line"/>
      <point x="455" y="843" type="line"/>
      <point x="455" y="1224" type="line"/>
      <point x="1026" y="1224" type="line"/>
      <point x="1037" y="1460" type="line"/>
      <point x="154" y="1460" type="line"/>
      <point x="154" y="0" type="line"/>
    </contour>
  </outline>
</glyph>
<glyph name="H" format="1">
  <advance width="1530"/>
  <unicode hex="0048"/>
  <outline>
    <contour>
      <point x="1380" y="0" type="line"/>
      <point x="1380" y="1460" type="line"/>
      <point x="1076" y="1460" type="line"/>
      <point x="1076" y="873" type="line"/>
      <point x="458" y="873" type="line"/>
      <point x="458" y="1460" type="line"/>
      <point x="154" y="1460" type="line"/>
      <point x="154" y="0" type="line"/>
      <point x="458" y="0" type="line"/>
      <point x="458" y="639" type="line"/>
      <point x="1076" y="639" type="line"/>
      <point x="1076" y="0" type="line"/>
    </contour>
    <contour>
      <point x="765" y="1444" type="move" name="top"/>
    </contour>
    <contour>
      <point x="765" y="722" type="move" name="center"/>
    </contour>
  </outline>
</glyph>
<glyph name="I" format="1">
  <advance width="622"/>
  <unicode hex="0049"/>
  <outline>
    <contour>
      <point x="159" y="0" type="line"/>
      <point x="159" y="1460" type="line"/>
      <point x="463" y="1460" type="line"/>
      <point x="463" y="0" type="line"/>
    </contour>
    <contour>
      <point x="311" y="1444" type="move" name="top"/>
    </contour>
    <contour>
      <point x="560" y="10" type="move" name="ogonek"/>
    </contour>
  </outline>
</glyph>
<glyph name="J" format="1">
  <advance width="661"/>
  <unicode hex="004A"/>
  <outline>
    <contour>
      <point x="204" y="111" type="curve" smooth="yes"/>
      <point x="204" y="1460" type="line"/>
      <point x="508" y="1460" type="line"/>
      <point x="508" y="116" type="line" smooth="yes"/>
      <point x="508" y="-216"/>
      <point x="373" y="-367"/>
      <point x="24" y="-367" type="curve" smooth="yes"/>
      <point x="-19" y="-367"/>
      <point x="-57" y="-363"/>
      <point x="-91" y="-356" type="curve"/>
      <point x="-99" y="-120" type="line"/>
      <point x="-59" y="-126"/>
      <point x="-20" y="-130"/>
      <point x="16" y="-130" type="curve" smooth="yes"/>
      <point x="163" y="-130"/>
      <point x="204" y="-58"/>
    </contour>
    <contour>
      <point x="331" y="1444" type="move" name="top"/>
    </contour>
  </outline>
</glyph>
<glyph name="K" format="1">
  <advance width="1348"/>
  <unicode hex="004B"/>
  <outline>
    <contour>
      <point x="1365" y="0" type="line"/>
      <point x="1011" y="0" type="line"/>
      <point x="563" y="640" type="line"/>
      <point x="458" y="555" type="line"/>
      <point x="458" y="0" type="line"/>
      <point x="154" y="0" type="line"/>
      <point x="154" y="1460" type="line"/>
      <point x="458" y="1460" type="line"/>
      <point x="458" y="822" type="line"/>
      <point x="624.438" y="1040.9"/>
      <point x="804.708" y="1247.96"/>
      <point x="978" y="1460" type="curve"/>
      <point x="1333" y="1460" type="line"/>
      <point x="795" y="804" type="line"/>
    </contour>
    <contour>
      <point x="674" y="1444" type="move" name="top"/>
    </contour>
    <contour>
      <point x="674" y="0" type="move" name="bottom"/>
    </contour>
  </outline>
</glyph>
<glyph name="L" format="1">
  <advance width="1090"/>
  <unicode hex="004C"/>
  <outline>
    <contour>
      <point x="154" y="0" type="line"/>
      <point x="154" y="1460" type="line"/>
      <point x="458" y="1460" type="line"/>
      <point x="458" y="237" type="line"/>
      <point x="1058" y="237" type="line"/>
      <point x="1050" y="0" type="line"/>
    </contour>
    <contour>
      <point x="545" y="1444" type="move" name="top"/>
    </contour>
    <contour>
      <point x="545" y="0" type="move" name="bottom"/>
    </contour>
  </outline>
</glyph>
<glyph name="M" format="1">
  <advance width="1849"/>
  <unicode hex="004D"/>
  <outline>
    <contour>
      <point x="791" y="103" type="line"/>
      <point x="453" y="996" type="line"/>
      <point x="416" y="1059" type="line"/>
      <point x="425" y="665" type="line"/>
      <point x="425" y="0" type="line"/>
      <point x="154" y="0" type="line"/>
      <point x="154" y="1460" type="line"/>
      <point x="506" y="1460" type="line"/>
      <point x="925" y="442" type="line"/>
      <point x="1350" y="1460" type="line"/>
      <point x="1699" y="1460" type="line"/>
      <point x="1699" y="0" type="line"/>
      <point x="1421" y="0" type="line"/>
      <point x="1421" y="668" type="line"/>
      <point x="1429" y="1054" type="line"/>
      <point x="1392" y="991" type="line"/>
      <point x="1044" y="103" type="line"/>
    </contour>
  </outline>
</glyph>
<glyph name="N" format="1">
  <advance width="1567"/>
  <unicode hex="004E"/>
  <outline>
    <contour>
      <point x="1417" y="0" type="line"/>
      <point x="1093" y="0" type="line"/>
      <point x="468" y="985" type="line"/>
      <point x="420" y="1047" type="line"/>
      <point x="429" y="698" type="line"/>
      <point x="429" y="0" type="line"/>
      <point x="154" y="0" type="line"/>
      <point x="154" y="1460" type="line"/>
      <point x="474" y="1460" type="line"/>
      <point x="1101" y="480" type="line"/>
      <point x="1148" y="419" type="line"/>
      <point x="1141" y="760" type="line"/>
      <point x="1141" y="1460" type="line"/>
      <point x="1417" y="1460" type="line"/>
    </contour>
    <contour>
      <point x="784" y="1444" type="move" name="top"/>
    </contour>
    <contour>
      <point x="784" y="0" type="move" name="bottom"/>
    </contour>
  </outline>
</glyph>
<glyph name="O" format="1">
  <advance width="1626"/>
  <unicode hex="004F"/>
  <outline>
    <contour>
      <point x="410" y="727" type="curve" smooth="yes"/>
      <point x="410" y="411"/>
      <point x="545" y="223"/>
      <point x="815" y="223" type="curve" smooth="yes"/>
      <point x="1085" y="223"/>
      <point x="1221" y="410"/>
      <point x="1221" y="727" type="curve" smooth="yes"/>
      <point x="1221" y="1044"/>
      <point x="1086" y="1239"/>
      <point x="816" y="1239" type="curve" smooth="yes"/>
      <point x="545" y="1239"/>
      <point x="410" y="1043"/>
    </contour>
    <contour>
      <point x="1532" y="730" type="curve" smooth="yes"/>
      <point x="1532" y="253"/>
      <point x="1249" y="-20"/>
      <point x="814" y="-20" type="curve" smooth="yes"/>
      <point x="379" y="-20"/>
      <point x="96" y="253"/>
      <point x="96" y="731" type="curve" smooth="yes"/>
      <point x="96" y="1212"/>
      <point x="380" y="1480"/>
      <point x="815" y="1480" type="curve" smooth="yes"/>
      <point x="1251" y="1480"/>
      <point x="1532" y="1209"/>
    </contour>
    <contour>
      <point x="813" y="1444" type="move" name="top"/>
    </contour>
  </outline>
</glyph>
<glyph name="P" format="1">
  <advance width="1221"/>
  <unicode hex="0050"/>
  <outline>
    <contour>
      <point x="423" y="0" type="line"/>
      <point x="125" y="0" type="line"/>
      <point x="125" y="1460" type="line"/>
      <point x="616" y="1460" type="line" smooth="yes"/>
      <point x="970" y="1460"/>
      <point x="1197" y="1323"/>
      <point x="1197" y="1008" type="curve" smooth="yes"/>
      <point x="1197" y="748"/>
      <point x="1071" y="533"/>
      <point x="636" y="533" type="curve" smooth="yes"/>
      <point x="574" y="533"/>
      <point x="499" y="532"/>
      <point x="423" y="539" type="curve"/>
    </contour>
    <contour>
      <point x="591" y="743" type="curve" smooth="yes"/>
      <point x="862" y="743"/>
      <point x="908" y="875"/>
      <point x="908" y="997" type="curve" smooth="yes"/>
      <point x="908" y="1155"/>
      <point x="804" y="1244"/>
      <point x="617" y="1244" type="curve" smooth="yes"/>
      <point x="423" y="1244" type="line"/>
      <point x="423" y="745" type="line"/>
      <point x="448" y="742"/>
      <point x="534" y="743"/>
    </contour>
  </outline>
</glyph>
<glyph name="Q" format="1">
  <advance width="1627"/>
  <unicode hex="0051"/>
  <outline>
    <contour>
      <point x="1287" y="-470" type="curve"/>
      <point x="1440" y="-319" type="line"/>
      <point x="1278.43" y="-173.089"/>
      <point x="1190.24" y="-65.2328"/>
      <point x="1125.04" y="37.6194" type="curve"/>
      <point x="1382.29" y="141.492"/>
      <point x="1553" y="381.905"/>
      <point x="1553" y="727" type="curve" smooth="yes"/>
      <point x="1553" y="1202"/>
      <point x="1236" y="1480"/>
      <point x="813" y="1480" type="curve" smooth="yes"/>
      <point x="391" y="1480"/>
      <point x="74" y="1202"/>
      <point x="74" y="727" type="curve" smooth="yes"/>
      <point x="74" y="256"/>
      <point x="391" y="-20"/>
      <point x="813" y="-20" type="curve" smooth="yes"/>
      <point x="844.716" y="-20"/>
      <point x="875.844" y="-18.441"/>
      <point x="906.294" y="-15.3575" type="curve"/>
      <point x="987.663" y="-163.201"/>
      <point x="1143.76" y="-369.535"/>
    </contour>
    <contour>
      <point x="815" y="206" type="curve" smooth="yes"/>
      <point x="523" y="206"/>
      <point x="376" y="416"/>
      <point x="376" y="722" type="curve" smooth="yes"/>
      <point x="376" y="1027"/>
      <point x="521" y="1252"/>
      <point x="815" y="1252" type="curve" smooth="yes"/>
      <point x="1110" y="1252"/>
      <point x="1256" y="1027"/>
      <point x="1256" y="722" type="curve" smooth="yes"/>
      <point x="1256" y="416"/>
      <point x="1108" y="206"/>
    </contour>
  </outline>
</glyph>
<glyph name="R" format="1">
  <advance width="1323"/>
  <unicode hex="0052"/>
  <outline>
    <contour>
      <point x="1338" y="0" type="line"/>
      <point x="1023" y="0" type="line"/>
      <point x="860" y="356" type="line"/>
      <point x="823" y="434"/>
      <point x="731" y="606"/>
      <point x="731" y="606" type="curve"/>
      <point x="718" y="608"/>
      <point x="681" y="609"/>
      <point x="638" y="609" type="curve" smooth="yes"/>
      <point x="424" y="609" type="line"/>
      <point x="424" y="0" type="line"/>
      <point x="125" y="0" type="line"/>
      <point x="125" y="1460" type="line"/>
      <point x="691" y="1460" type="line" smooth="yes"/>
      <point x="1034" y="1460"/>
      <point x="1251" y="1384"/>
      <point x="1251" y="1048" type="curve" smooth="yes"/>
      <point x="1251" y="846"/>
      <point x="1158" y="724"/>
      <point x="992" y="662" type="curve"/>
      <point x="1055" y="591"/>
      <point x="1087" y="521"/>
      <point x="1133" y="429" type="curve"/>
    </contour>
    <contour>
      <point x="424" y="1243" type="line"/>
      <point x="424" y="820" type="line"/>
      <point x="699" y="820" type="line" smooth="yes"/>
      <point x="891" y="820"/>
      <point x="975" y="885"/>
      <point x="975" y="1043" type="curve" smooth="yes"/>
      <point x="975" y="1183"/>
      <point x="881" y="1243"/>
      <point x="706" y="1243" type="curve" smooth="yes"/>
    </contour>
    <contour>
      <point x="662" y="1444" type="move" name="top"/>
    </contour>
    <contour>
      <point x="662" y="0" type="move" name="bottom"/>
    </contour>
  </outline>
</glyph>
<glyph name="S" format="1">
  <advance width="1168"/>
  <unicode hex="0053"/>
  <outline>
    <contour>
      <point x="119" y="338" type="line"/>
      <point x="271" y="262"/>
      <point x="420" y="221"/>
      <point x="562" y="221" type="curve" smooth="yes"/>
      <point x="713" y="221"/>
      <point x="805" y="272"/>
      <point x="805" y="385" type="curve" smooth="yes"/>
      <point x="805" y="459"/>
      <point x="765" y="506"/>
      <point x="700" y="543" type="curve" smooth="yes"/>
      <point x="598" y="601"/>
      <point x="364" y="667"/>
      <point x="248" y="755" type="curve" smooth="yes"/>
      <point x="156" y="826"/>
      <point x="94" y="925"/>
      <point x="94" y="1067" type="curve" smooth="yes"/>
      <point x="94" y="1335"/>
      <point x="308" y="1480"/>
      <point x="609" y="1480" type="curve" smooth="yes"/>
      <point x="786" y="1480"/>
      <point x="931" y="1446"/>
      <point x="1066" y="1371" type="curve"/>
      <point x="978" y="1151" type="line"/>
      <point x="849" y="1213"/>
      <point x="740" y="1238"/>
      <point x="603" y="1238" type="curve" smooth="yes"/>
      <point x="474" y="1238"/>
      <point x="394" y="1186"/>
      <point x="394" y="1086" type="curve" smooth="yes"/>
      <point x="394" y="1004"/>
      <point x="440" y="965"/>
      <point x="512" y="932" type="curve" smooth="yes"/>
      <point x="559" y="911"/>
      <point x="626" y="883"/>
      <point x="711" y="847" type="curve" smooth="yes"/>
      <point x="956" y="746"/>
      <point x="1106" y="645"/>
      <point x="1106" y="410" type="curve" smooth="yes"/>
      <point x="1106" y="130"/>
      <point x="879" y="-20"/>
      <point x="550" y="-20" type="curve" smooth="yes"/>
      <point x="359" y="-20"/>
      <point x="206" y="14"/>
      <point x="79" y="86" type="curve"/>
    </contour>
    <contour>
      <point x="584" y="1444" type="move" name="top"/>
    </contour>
    <contour>
      <point x="584" y="0" type="move" name="bottom"/>
    </contour>
  </outline>
</glyph>
<glyph name="T" format="1">
  <advance width="1151"/>
  <unicode hex="0054"/>
  <outline>
    <contour>
      <point x="727" y="0" type="line"/>
      <point x="423" y="0" type="line"/>
      <point x="423" y="1222" type="line"/>
      <point x="6" y="1222" type="line"/>
      <point x="6" y="1460" type="line"/>
      <point x="1144" y="1460" type="line"/>
      <point x="1144" y="1222" type="line"/>
      <point x="727" y="1222" type="line"/>
    </contour>
    <contour>
      <point x="576" y="1444" type="move" name="top"/>
    </contour>
    <contour>
      <point x="576" y="0" type="move" name="bottom"/>
    </contour>
    <contour>
      <point x="576" y="722" type="move" name="center"/>
    </contour>
  </outline>
</glyph>
<glyph name="U" format="1">
  <advance width="1478"/>
  <unicode hex="0055"/>
  <outline>
    <contour>
      <point x="1340" y="1460" type="line"/>
      <point x="1340" y="527" type="line" smooth="yes"/>
      <point x="1340" y="183"/>
      <point x="1127" y="-20"/>
      <point x="738" y="-20" type="curve" smooth="yes"/>
      <point x="348" y="-20"/>
      <point x="142" y="182"/>
      <point x="142" y="529" type="curve" smooth="yes"/>
      <point x="142" y="1460" type="line"/>
      <point x="446" y="1460" type="line"/>
      <point x="446" y="560" type="line" smooth="yes"/>
      <point x="446" y="328"/>
      <point x="524" y="223"/>
      <point x="742" y="223" type="curve" smooth="yes"/>
      <point x="956" y="223"/>
      <point x="1036" y="328"/>
      <point x="1036" y="561" type="curve" smooth="yes"/>
      <point x="1036" y="1460" type="line"/>
    </contour>
    <contour>
      <point x="739" y="1444" type="move" name="top"/>
    </contour>
    <contour>
      <point x="1330" y="10" type="move" name="ogonek"/>
    </contour>
  </outline>
</glyph>
<glyph name="W" format="1">
  <advance width="2064"/>
  <unicode hex="0057"/>
  <outline>
    <contour>
      <point x="1645" y="0" type="line"/>
      <point x="1323" y="0" type="line"/>
      <point x="1030" y="1086" type="line"/>
      <point x="715" y="0" type="line"/>
      <point x="395" y="0" type="line"/>
      <point x="-7" y="1460" type="line"/>
      <point x="293" y="1460" type="line"/>
      <point x="569" y="334" type="line"/>
      <point x="896" y="1460" type="line"/>
      <point x="1169" y="1460" type="line"/>
      <point x="1477" y="329" type="line"/>
      <point x="1771" y="1460" type="line"/>
      <point x="2071" y="1460" type="line"/>
    </contour>
    <contour>
      <point x="1032" y="1444" type="move" name="top"/>
    </contour>
  </outline>
</glyph>
<glyph name="X" format="1">
  <advance width="1369"/>
  <unicode hex="0058"/>
  <outline>
    <contour>
      <point x="1385" y="0" type="line"/>
      <point x="1033" y="0" type="line"/>
      <point x="678" y="540" type="line"/>
      <point x="315" y="0" type="line"/>
      <point x="-17" y="0" type="line"/>
      <point x="498" y="743" type="line"/>
      <point x="22" y="1460" type="line"/>
      <point x="361" y="1460" type="line"/>
      <point x="694" y="930" type="line"/>
      <point x="1034" y="1460" type="line"/>
      <point x="1358" y="1460" type="line"/>
      <point x="870" y="736" type="line"/>
    </contour>
  </outline>
</glyph>
<glyph name="Y" format="1">
  <advance width="1276"/>
  <unicode hex="0059"/>
  <outline>
    <contour>
      <point x="639" y="857" type="line"/>
      <point x="969" y="1460" type="line"/>
      <point x="1294" y="1460" type="line"/>
      <point x="793" y="584" type="line"/>
      <point x="793" y="0" type="line"/>
      <point x="490" y="0" type="line"/>
      <point x="490" y="579" type="line"/>
      <point x="-19" y="1460" type="line"/>
      <point x="309" y="1460" type="line"/>
    </contour>
    <contour>
      <point x="638" y="1444" type="move" name="top"/>
    </contour>
  </outline>
</glyph>
<glyph name="grave" format="1">
  <advance width="471"/>
  <unicode hex="0060"/>
  <outline>
    <contour>
      <point x="295" y="1176" type="line"/>
      <point x="-39" y="1558" type="line"/>
      <point x="285" y="1558" type="line"/>
      <point x="474" y="1176" type="line"/>
    </contour>
    <contour>
      <point x="217.5" y="1098" type="move" name="_top"/>
    </contour>
  </outline>
</glyph>
<glyph name="a" format="1">
  <advance width="1158"/>
  <unicode hex="0061"/>
  <outline>
    <contour>
      <point x="507" y="182" type="curve" smooth="yes"/>
      <point x="629" y="182"/>
      <point x="703" y="251"/>
      <point x="739" y="301" type="curve"/>
      <point x="739" y="522" type="line"/>
      <point x="641" y="514" type="line"/>
      <point x="471" y="499"/>
      <point x="362" y="455"/>
      <point x="362" y="317" type="curve" smooth="yes"/>
      <point x="362" y="232"/>
      <point x="412" y="182"/>
    </contour>
    <contour>
      <point x="817" y="0" type="line"/>
      <point x="769" y="132" type="line"/>
      <point x="676.366" y="41.9455"/>
      <point x="583.734" y="-20"/>
      <point x="421" y="-20" type="curve" smooth="yes"/>
      <point x="227" y="-20"/>
      <point x="79" y="88"/>
      <point x="79" y="313" type="curve" smooth="yes"/>
      <point x="79" y="552"/>
      <point x="232" y="645"/>
      <point x="514" y="674" type="curve"/>
      <point x="585" y="683"/>
      <point x="660" y="690"/>
      <point x="739" y="699" type="curve"/>
      <point x="739" y="744" type="line" smooth="yes"/>
      <point x="739" y="873"/>
      <point x="677" y="922"/>
      <point x="566" y="922" type="curve" smooth="yes"/>
      <point x="466" y="922"/>
      <point x="339" y="886"/>
      <point x="234" y="849" type="curve"/>
      <point x="161" y="1047" type="line"/>
      <point x="295" y="1100"/>
      <point x="419" y="1128"/>
      <point x="595" y="1128" type="curve" smooth="yes"/>
      <point x="899" y="1128"/>
      <point x="1032" y="1003"/>
      <point x="1032" y="714" type="curve" smooth="yes"/>
      <point x="1032" y="0" type="line"/>
    </contour>
    <contour>
      <point x="579" y="1098" type="move" name="top"/>
    </contour>
    <contour>
      <point x="1042" y="10" type="move" name="ogonek"/>
    </contour>
  </outline>
</glyph>
<glyph name="b" format="1">
  <advance width="1276"/>
  <unicode hex="0062"/>
  <outline>
    <contour>
      <point x="672" y="911" type="curve" smooth="yes"/>
      <point x="526" y="911"/>
      <point x="425" y="822"/>
      <point x="423" y="577" type="curve"/>
      <point x="423" y="301"/>
      <point x="516" y="199"/>
      <point x="668" y="199" type="curve" smooth="yes"/>
      <point x="796" y="199"/>
      <point x="908" y="309"/>
      <point x="908" y="561" type="curve" smooth="yes"/>
      <point x="908" y="815"/>
      <point x="799" y="911"/>
    </contour>
    <contour>
      <point x="755" y="1128" type="curve" smooth="yes"/>
      <point x="1036" y="1128"/>
      <point x="1199" y="893"/>
      <point x="1199" y="564" type="curve" smooth="yes"/>
      <point x="1199" y="215"/>
      <point x="1020" y="-20"/>
      <point x="747" y="-20" type="curve" smooth="yes"/>
      <point x="581" y="-20"/>
      <point x="453.913" y="74.7385"/>
      <point x="415" y="137" type="curve"/>
      <point x="387" y="1" type="line"/>
      <point x="131" y="1" type="line"/>
      <point x="131" y="1527" type="line"/>
      <point x="425" y="1536" type="line"/>
      <point x="425" y="1185" type="line" smooth="yes"/>
      <point x="425" y="1124"/>
      <point x="423" y="1049"/>
      <point x="419" y="961" type="curve"/>
      <point x="466.137" y="1020.88"/>
      <point x="561" y="1128"/>
    </contour>
  </outline>
</glyph>
<glyph name="c" format="1">
  <advance width="1014"/>
  <unicode hex="0063"/>
  <outline>
    <contour>
      <point x="616" y="-20" type="curve" smooth="yes"/>
      <point x="282" y="-20"/>
      <point x="77" y="171"/>
      <point x="77" y="562" type="curve" smooth="yes"/>
      <point x="77" y="943"/>
      <point x="311" y="1128"/>
      <point x="619" y="1128" type="curve" smooth="yes"/>
      <point x="757" y="1128"/>
      <point x="863" y="1099"/>
      <point x="957" y="1042" type="curve"/>
      <point x="889" y="837" type="line"/>
      <point x="818" y="873"/>
      <point x="725" y="910"/>
      <point x="635" y="910" type="curve" smooth="yes"/>
      <point x="474" y="910"/>
      <point x="368" y="801"/>
      <point x="368" y="558" type="curve" smooth="yes"/>
      <point x="368" y="314"/>
      <point x="468" y="199"/>
      <point x="638" y="199" type="curve" smooth="yes"/>
      <point x="747" y="199"/>
      <point x="839" y="234"/>
      <point x="919" y="289" type="curve"/>
      <point x="946" y="68" type="line"/>
      <point x="849" y="6"/>
      <point x="763" y="-20"/>
    </contour>
    <contour>
      <point x="507" y="1098" type="move" name="top"/>
    </contour>
    <contour>
      <point x="507" y="0" type="move" name="bottom"/>
    </contour>
  </outline>
</glyph>
<glyph name="e" format="1">
  <advance width="1167"/>
  <unicode hex="0065"/>
  <outline>
    <contour>
      <point x="608" y="924" type="curve" smooth="yes"/>
      <point x="496" y="924"/>
      <point x="389" y="854"/>
      <point x="376" y="666" type="curve"/>
      <point x="824" y="666" type="line"/>
      <point x="823" y="833"/>
      <point x="743" y="924"/>
    </contour>
    <contour>
      <point x="652" y="-20" type="curve" smooth="yes"/>
      <point x="286" y="-20"/>
      <point x="77" y="196"/>
      <point x="77" y="555" type="curve" smooth="yes"/>
      <point x="77" y="905"/>
      <point x="274" y="1128"/>
      <point x="606" y="1128" type="curve" smooth="yes"/>
      <point x="928" y="1128"/>
      <point x="1096" y="912"/>
      <point x="1096" y="607" type="curve" smooth="yes"/>
      <point x="1096" y="569"/>
      <point x="1095" y="527"/>
      <point x="1095" y="488" type="curve"/>
      <point x="371" y="488" type="line"/>
      <point x="377" y="298"/>
      <point x="483" y="190"/>
      <point x="664" y="190" type="curve" smooth="yes"/>
      <point x="799" y="190"/>
      <point x="911" y="228"/>
      <point x="1009" y="284" type="curve"/>
      <point x="1049" y="82" type="line"/>
      <point x="948" y="19"/>
      <point x="831" y="-20"/>
    </contour>
    <contour>
      <point x="584" y="1098" type="move" name="top"/>
    </contour>
    <contour>
      <point x="584" y="0" type="move" name="bottom"/>
    </contour>
    <contour>
      <point x="1050" y="10" type="move" name="ogonek"/>
    </contour>
  </outline>
</glyph>
<glyph name="f" format="1">
  <advance width="760"/>
  <unicode hex="0066"/>
  <outline>
    <contour>
      <point x="585" y="1322" type="curve"/>
      <point x="518" y="1311"/>
      <point x="494" y="1260"/>
      <point x="494" y="1182" type="curve" smooth="yes"/>
      <point x="494" y="1100" type="line"/>
      <point x="749" y="1100" type="line"/>
      <point x="749" y="909" type="line"/>
      <point x="494" y="909" type="line"/>
      <point x="494" y="0" type="line"/>
      <point x="200" y="0" type="line"/>
      <point x="200" y="909" type="line"/>
      <point x="27" y="909" type="line"/>
      <point x="27" y="1067" type="line"/>
      <point x="200" y="1108" type="line"/>
      <point x="200" y="1164" type="line" smooth="yes"/>
      <point x="200" y="1404"/>
      <point x="271" y="1533"/>
      <point x="533" y="1552" type="curve"/>
      <point x="617" y="1556"/>
      <point x="710" y="1548"/>
      <point x="794" y="1533" type="curve"/>
      <point x="767" y="1316" type="line"/>
      <point x="699" y="1325"/>
      <point x="631" y="1332"/>
    </contour>
  </outline>
</glyph>
<glyph name="g" format="1">
  <advance width="1294"/>
  <unicode hex="0067"/>
  <outline>
    <contour>
      <point x="366" y="-488" type="line"/>
      <point x="506" y="-488" type="line" smooth="yes"/>
      <point x="1024" y="-488"/>
      <point x="1172" y="-317"/>
      <point x="1172" y="77" type="curve" smooth="yes"/>
      <point x="1172" y="1100" type="line"/>
      <point x="914" y="1100" type="line"/>
      <point x="890" y="969" type="line"/>
      <point x="830" y="1062"/>
      <point x="730" y="1128"/>
      <point x="562" y="1128" type="curve" smooth="yes"/>
      <point x="325" y="1128"/>
      <point x="77" y="948"/>
      <point x="77" y="567" type="curve" smooth="yes"/>
      <point x="77" y="208"/>
      <point x="306" y="0"/>
      <point x="584" y="0" type="curve" smooth="yes"/>
      <point x="760" y="0"/>
      <point x="823" y="67"/>
      <point x="878" y="143" type="curve"/>
      <point x="883.468" y="91.3047"/>
      <point x="886.213" y="36.6377"/>
      <point x="886.213" y="-17.9951" type="curve" smooth="yes"/>
      <point x="886.213" y="-223.479"/>
      <point x="749" y="-256"/>
      <point x="461" y="-256" type="curve" smooth="yes"/>
      <point x="351" y="-256" type="line"/>
    </contour>
    <contour>
      <point x="631" y="196" type="curve" smooth="yes"/>
      <point x="467" y="196"/>
      <point x="369" y="354"/>
      <point x="369" y="565" type="curve" smooth="yes"/>
      <point x="369" y="788"/>
      <point x="464" y="908"/>
      <point x="649" y="908" type="curve"/>
      <point x="803.879" y="905.962"/>
      <point x="890" y="791.68"/>
      <point x="890" y="565" type="curve" smooth="yes"/>
      <point x="890.0" y="560.000004768"/>
      <point x="889.967975268" y="555.036683021"/>
      <point x="889.903068837" y="550.110950419" type="curve" smooth="yes"/>
      <point x="887.112089597" y="338.304241849"/>
      <point x="823.522731543" y="196.0"/>
    </contour>
    <contour>
      <point x="647" y="1098" type="move" name="top"/>
    </contour>
  </outline>
</glyph>
<glyph name="h" format="1">
  <advance width="1278"/>
  <unicode hex="0068"/>
  <outline>
    <contour>
      <point x="862" y="0" type="line"/>
      <point x="862" y="668" type="line" smooth="yes"/>
      <point x="862" y="830"/>
      <point x="816" y="911"/>
      <point x="689" y="911" type="curve" smooth="yes"/>
      <point x="585" y="911"/>
      <point x="500" y="851"/>
      <point x="453" y="775" type="curve"/>
      <point x="433" y="704"/>
      <point x="424" y="617"/>
      <point x="424" y="510" type="curve" smooth="yes"/>
      <point x="424" y="0" type="line"/>
      <point x="130" y="0" type="line"/>
      <point x="130" y="1527" type="line"/>
      <point x="424" y="1536" type="line"/>
      <point x="424" y="1243" type="line" smooth="yes"/>
      <point x="424.0" y="1208.0"/>
      <point x="417" y="978"/>
      <point x="417" y="978" type="curve"/>
      <point x="475.42" y="1044.46"/>
      <point x="580" y="1128"/>
      <point x="762" y="1128" type="curve" smooth="yes"/>
      <point x="996" y="1128"/>
      <point x="1156" y="1005"/>
      <point x="1156" y="698" type="curve" smooth="yes"/>
      <point x="1156" y="0" type="line"/>
    </contour>
    <contour>
      <point x="639" y="1098" type="move" name="top"/>
    </contour>
    <contour>
      <point x="639" y="549" type="move" name="center"/>
    </contour>
  </outline>
</glyph>
<glyph name="i" format="1">
  <advance width="527"/>
  <unicode hex="0069"/>
  <outline>
    <contour>
      <point x="424" y="1100" type="line"/>
      <point x="424" y="0" type="line"/>
      <point x="130" y="0" type="line"/>
      <point x="130" y="1100" type="line"/>
    </contour>
    <contour>
      <point x="425" y="1478" type="line"/>
      <point x="425" y="1246" type="line"/>
      <point x="130" y="1246" type="line"/>
      <point x="130" y="1478" type="line"/>
    </contour>
  </outline>
</glyph>
<glyph name="j" format="1">
  <advance width="554"/>
  <unicode hex="006A"/>
  <outline>
    <contour>
      <point x="458" y="1100" type="line"/>
      <point x="458" y="81" type="line" smooth="yes"/>
      <point x="458" y="-240"/>
      <point x="391" y="-402"/>
      <point x="15" y="-402" type="curve" smooth="yes"/>
      <point x="-46" y="-402" type="line"/>
      <point x="-77" y="-193" type="line"/>
      <point x="-17" y="-193" type="line" smooth="yes"/>
      <point x="141" y="-193"/>
      <point x="164" y="-146"/>
      <point x="164" y="19" type="curve" smooth="yes"/>
      <point x="164" y="1100" type="line"/>
    </contour>
    <contour>
      <point x="458" y="1478" type="line"/>
      <point x="458" y="1246" type="line"/>
      <point x="164" y="1246" type="line"/>
      <point x="164" y="1478" type="line"/>
    </contour>
  </outline>
</glyph>
<glyph name="k" format="1">
  <advance width="1200"/>
  <unicode hex="006B"/>
  <outline>
    <contour>
      <point x="132" y="0" type="line"/>
      <point x="426" y="0" type="line"/>
      <point x="426" y="405" type="line"/>
      <point x="530" y="485" type="line"/>
      <point x="879" y="0" type="line"/>
      <point x="1233" y="0" type="line"/>
      <point x="754" y="630" type="line"/>
      <point x="1205" y="1100" type="line"/>
      <point x="859" y="1100" type="line"/>
      <point x="728.763" y="962.237"/>
      <point x="582.297" y="820.703"/>
      <point x="461" y="674" type="curve"/>
      <point x="418" y="633" type="line"/>
      <point x="426" y="883" type="line"/>
      <point x="426" y="1536" type="line"/>
      <point x="132" y="1526" type="line"/>
    </contour>
    <contour>
      <point x="600" y="0" type="move" name="bottom"/>
    </contour>
  </outline>
</glyph>
<glyph name="l" format="1">
  <advance width="687"/>
  <unicode hex="006C"/>
  <outline>
    <contour>
      <point x="405" y="440" type="line" smooth="yes"/>
      <point x="405" y="224"/>
      <point x="431" y="197"/>
      <point x="563" y="197" type="curve" smooth="yes"/>
      <point x="596" y="197"/>
      <point x="657" y="208"/>
      <point x="705" y="218" type="curve"/>
      <point x="712" y="13" type="line"/>
      <point x="712" y="13"/>
      <point x="621" y="-13"/>
      <point x="523" y="-13" type="curve" smooth="yes"/>
      <point x="189" y="-13"/>
      <point x="111" y="145"/>
      <point x="111" y="456" type="curve" smooth="yes"/>
      <point x="111" y="1526" type="line"/>
      <point x="405" y="1536" type="line"/>
    </contour>
    <contour>
      <point x="344" y="1098" type="move" name="top"/>
    </contour>
    <contour>
      <point x="344" y="0" type="move" name="bottom"/>
    </contour>
    <contour>
      <point x="667" y="1098" type="move" name="topright"/>
    </contour>
  </outline>
</glyph>
<glyph name="m" format="1">
  <advance width="1936"/>
  <unicode hex="006D"/>
  <outline>
    <contour>
      <point x="1520" y="0" type="line"/>
      <point x="1520" y="642" type="line" smooth="yes"/>
      <point x="1520" y="830"/>
      <point x="1485" y="911"/>
      <point x="1362" y="911" type="curve" smooth="yes"/>
      <point x="1275.10123569" y="911.0"/>
      <point x="1210.73314074" y="872.778328749"/>
      <point x="1169.40611333" y="804.501356747" type="curve" smooth="yes"/>
      <point x="1145.57913308" y="765.136462512"/>
      <point x="1129.41115636" y="715.780987144"/>
      <point x="1121" y="658" type="curve"/>
      <point x="1121" y="0" type="line"/>
      <point x="827" y="0" type="line"/>
      <point x="827" y="652" type="line" smooth="yes"/>
      <point x="827" y="817"/>
      <point x="791" y="910"/>
      <point x="660" y="910" type="curve" smooth="yes"/>
      <point x="558" y="910"/>
      <point x="491" y="850"/>
      <point x="451" y="782" type="curve"/>
      <point x="433" y="711"/>
      <point x="424" y="622"/>
      <point x="424" y="515" type="curve" smooth="yes"/>
      <point x="424" y="0" type="line"/>
      <point x="130" y="0" type="line"/>
      <point x="130" y="1100" type="line"/>
      <point x="366" y="1100" type="line"/>
      <point x="399" y="965" type="line"/>
      <point x="451.432" y="1026.38"/>
      <point x="537" y="1128"/>
      <point x="767" y="1128" type="curve" smooth="yes"/>
      <point x="953" y="1128"/>
      <point x="1048.25" y="1031.24"/>
      <point x="1084" y="957" type="curve"/>
      <point x="1163" y="1064"/>
      <point x="1291" y="1128"/>
      <point x="1445" y="1128" type="curve" smooth="yes"/>
      <point x="1704" y="1128"/>
      <point x="1814" y="976"/>
      <point x="1814" y="701" type="curve" smooth="yes"/>
      <point x="1814" y="0" type="line"/>
    </contour>
  </outline>
</glyph>
<glyph name="n" format="1">
  <advance width="1278"/>
  <unicode hex="006E"/>
  <outline>
    <contour>
      <point x="130" y="0" type="line"/>
      <point x="130" y="1100" type="line"/>
      <point x="365" y="1100" type="line"/>
      <point x="397" y="966" type="line"/>
      <point x="493.165" y="1054.77"/>
      <point x="601.525" y="1128"/>
      <point x="770" y="1128" type="curve" smooth="yes"/>
      <point x="1032" y="1128"/>
      <point x="1156" y="966"/>
      <point x="1156" y="698" type="curve" smooth="yes"/>
      <point x="1156" y="0" type="line"/>
      <point x="862" y="0" type="line"/>
      <point x="862" y="648" type="line" smooth="yes"/>
      <point x="862" y="806"/>
      <point x="829" y="911"/>
      <point x="681" y="911" type="curve" smooth="yes"/>
      <point x="584" y="911"/>
      <point x="496" y="854"/>
      <point x="453" y="781" type="curve"/>
      <point x="433" y="709"/>
      <point x="424" y="621"/>
      <point x="424" y="513" type="curve" smooth="yes"/>
      <point x="424" y="0" type="line"/>
    </contour>
    <contour>
      <point x="639" y="1098" type="move" name="top"/>
    </contour>
    <contour>
      <point x="639" y="0" type="move" name="bottom"/>
    </contour>
  </outline>
</glyph>
<glyph name="p" format="1">
  <advance width="1275"/>
  <unicode hex="0070"/>
  <outline>
    <contour>
      <point x="130" y="-451" type="line"/>
      <point x="424" y="-437" type="line"/>
      <point x="424" y="-18" type="line" smooth="yes"/>
      <point x="424" y="11"/>
      <point x="422" y="59"/>
      <point x="416" y="127" type="curve"/>
      <point x="487.924" y="39.6633"/>
      <point x="597.431" y="-20"/>
      <point x="739" y="-20" type="curve" smooth="yes"/>
      <point x="1027" y="-20"/>
      <point x="1198" y="223"/>
      <point x="1198" y="559" type="curve" smooth="yes"/>
      <point x="1198" y="874.806"/>
      <point x="1033.21" y="1128.53"/>
      <point x="769.957" y="1128.53" type="curve" smooth="yes"/>
      <point x="615.123" y="1128.53"/>
      <point x="463.221" y="1043.3"/>
      <point x="414" y="964" type="curve"/>
      <point x="382" y="1100" type="line"/>
      <point x="130" y="1100" type="line"/>
    </contour>
    <contour>
      <point x="673" y="199" type="curve" smooth="yes"/>
      <point x="520" y="199"/>
      <point x="422" y="300"/>
      <point x="422" y="576" type="curve"/>
      <point x="424" y="824"/>
      <point x="526" y="911"/>
      <point x="667" y="911" type="curve" smooth="yes"/>
      <point x="803" y="911"/>
      <point x="906" y="819"/>
      <point x="906" y="560" type="curve" smooth="yes"/>
      <point x="906" y="309"/>
      <point x="807" y="199"/>
    </contour>
  </outline>
</glyph>
<glyph name="q" format="1">
  <advance width="1275"/>
  <unicode hex="0071"/>
  <outline>
    <contour>
      <point x="529" y="-20" type="curve" smooth="yes"/>
      <point x="240" y="-20"/>
      <point x="77" y="224"/>
      <point x="77" y="560" type="curve" smooth="yes"/>
      <point x="77" y="886"/>
      <point x="238" y="1128"/>
      <point x="536" y="1128" type="curve" smooth="yes"/>
      <point x="738" y="1128"/>
      <point x="822.027" y="1035.69"/>
      <point x="864" y="965" type="curve"/>
      <point x="888" y="1100" type="line"/>
      <point x="1145" y="1100" type="line"/>
      <point x="1145" y="-436" type="line"/>
      <point x="850" y="-451" type="line"/>
      <point x="850" y="7" type="line" smooth="yes"/>
      <point x="850" y="46"/>
      <point x="852" y="93"/>
      <point x="857" y="147" type="curve"/>
      <point x="814.217" y="84.0141"/>
      <point x="778" y="-20"/>
    </contour>
    <contour>
      <point x="616" y="195" type="curve" smooth="yes"/>
      <point x="761" y="195"/>
      <point x="860" y="282"/>
      <point x="863" y="537" type="curve"/>
      <point x="863" y="812"/>
      <point x="767" y="909"/>
      <point x="613" y="909" type="curve" smooth="yes"/>
      <point x="478" y="909"/>
      <point x="368" y="816"/>
      <point x="368" y="554" type="curve" smooth="yes"/>
      <point x="368" y="300"/>
      <point x="474" y="195"/>
    </contour>
  </outline>
</glyph>
<glyph name="r" format="1">
  <advance width="816"/>
  <unicode hex="0072"/>
  <outline>
    <contour>
      <point x="724" y="1118" type="curve" smooth="yes"/>
      <point x="749" y="1118"/>
      <point x="771" y="1117"/>
      <point x="790" y="1114" type="curve"/>
      <point x="786" y="863" type="line"/>
      <point x="760" y="867"/>
      <point x="732" y="868"/>
      <point x="702" y="868" type="curve" smooth="yes"/>
      <point x="500" y="868"/>
      <point x="424" y="761"/>
      <point x="424" y="589" type="curve" smooth="yes"/>
      <point x="424" y="0" type="line"/>
      <point x="130" y="0" type="line"/>
      <point x="130" y="1100" type="line"/>
      <point x="377" y="1100" type="line"/>
      <point x="417" y="941" type="line"/>
      <point x="486" y="1051"/>
      <point x="587" y="1118"/>
    </contour>
    <contour>
      <point x="408" y="1098" type="move" name="top"/>
    </contour>
    <contour>
      <point x="408" y="0" type="move" name="bottom"/>
    </contour>
  </outline>
</glyph>
<glyph name="s" format="1">
  <advance width="978"/>
  <unicode hex="0073"/>
  <outline>
    <contour>
      <point x="477.37" y="-18.5556" type="curve" smooth="yes"/>
      <point x="760.011" y="-18.5556"/>
      <point x="914" y="109.754"/>
      <point x="914" y="334" type="curve" smooth="yes"/>
      <point x="914" y="505"/>
      <point x="808" y="597"/>
      <point x="625" y="667" type="curve" smooth="yes"/>
      <point x="606.574378014" y="673.985538006"/>
      <point x="589.194202279" y="680.489350778"/>
      <point x="572.836644422" y="686.616241308" type="curve" smooth="yes"/>
      <point x="427.621608846" y="741.00801752"/>
      <point x="363.0" y="765.694215775"/>
      <point x="363" y="834" type="curve" smooth="yes"/>
      <point x="363" y="899"/>
      <point x="422" y="924"/>
      <point x="512" y="924" type="curve" smooth="yes"/>
      <point x="617" y="924"/>
      <point x="730" y="888"/>
      <point x="814" y="848" type="curve"/>
      <point x="884" y="1047" type="line"/>
      <point x="775" y="1102"/>
      <point x="651" y="1128"/>
      <point x="506" y="1128" type="curve" smooth="yes"/>
      <point x="248" y="1128"/>
      <point x="86" y="1029"/>
      <point x="86" y="814" type="curve" smooth="yes"/>
      <point x="86" y="632"/>
      <point x="185" y="554"/>
      <point x="379" y="476" type="curve"/>
      <point x="395.702474594" y="469.105373859"/>
      <point x="411.565692613" y="462.653950629"/>
      <point x="426.595148306" y="456.548665237" type="curve" smooth="yes"/>
      <point x="566.337152651" y="399.782483199"/>
      <point x="634.0" y="372.940084934"/>
      <point x="634" y="298" type="curve" smooth="yes"/>
      <point x="634" y="222"/>
      <point x="570" y="184"/>
      <point x="470" y="184" type="curve" smooth="yes"/>
      <point x="355" y="184"/>
      <point x="192" y="233"/>
      <point x="108" y="279" type="curve"/>
      <point x="79" y="63" type="line"/>
      <point x="178.558" y="7.81035"/>
      <point x="307.75" y="-18.5556"/>
    </contour>
    <contour>
      <point x="489" y="1098" type="move" name="top"/>
    </contour>
    <contour>
      <point x="489" y="0" type="move" name="bottom"/>
    </contour>
  </outline>
</glyph>
<glyph name="t" format="1">
  <advance width="824"/>
  <unicode hex="0074"/>
  <outline>
    <contour>
      <point x="600" y="-13" type="curve" smooth="yes"/>
      <point x="655" y="-13"/>
      <point x="769" y="1"/>
      <point x="769" y="1" type="curve"/>
      <point x="756" y="180" type="line"/>
      <point x="756" y="180"/>
      <point x="631" y="171"/>
      <point x="624" y="171" type="curve" smooth="yes"/>
      <point x="501.5" y="171"/>
      <point x="488" y="259"/>
      <point x="488" y="440" type="curve" smooth="yes"/>
      <point x="488" y="892" type="line"/>
      <point x="750" y="892" type="line"/>
      <point x="750" y="1063" type="line"/>
      <point x="488" y="1063" type="line"/>
      <point x="488" y="1354" type="line"/>
      <point x="311" y="1354" type="line"/>
      <point x="214" y="1063" type="line"/>
      <point x="26" y="1063" type="line"/>
      <point x="9" y="892" type="line"/>
      <point x="194" y="892" type="line"/>
      <point x="194" y="456" type="line" smooth="yes"/>
      <point x="194" y="145"/>
      <point x="271" y="-13"/>
    </contour>
    <contour>
      <point x="412" y="549" type="move" name="center"/>
    </contour>
    <contour>
      <point x="412" y="0" type="move" name="bottom"/>
    </contour>
  </outline>
</glyph>
<glyph name="u" format="1">
  <advance width="1138"/>
  <unicode hex="0075"/>
  <outline>
    <contour>
      <point x="83" y="399" type="curve" smooth="yes"/>
      <point x="83" y="1100" type="line"/>
      <point x="377" y="1100" type="line"/>
      <point x="377" y="398" type="line" smooth="yes"/>
      <point x="377" y="242"/>
      <point x="425" y="171"/>
      <point x="568" y="171" type="curve" smooth="yes"/>
      <point x="710" y="171"/>
      <point x="760" y="242"/>
      <point x="760" y="398" type="curve" smooth="yes"/>
      <point x="760" y="1100" type="line"/>
      <point x="1054" y="1100" type="line"/>
      <point x="1054" y="399" type="line" smooth="yes"/>
      <point x="1054" y="115"/>
      <point x="854" y="-20"/>
      <point x="568" y="-20" type="curve" smooth="yes"/>
      <point x="283" y="-20"/>
      <point x="83" y="112"/>
    </contour>
    <contour>
      <point x="569" y="1098" type="move" name="top"/>
    </contour>
    <contour>
      <point x="1024" y="10" type="move" name="ogonek"/>
    </contour>
  </outline>
</glyph>
<glyph name="v" format="1">
  <advance width="1156"/>
  <unicode hex="0076"/>
  <outline>
    <contour>
      <point x="446" y="0" type="line"/>
      <point x="3" y="1100" type="line"/>
      <point x="315" y="1100" type="line"/>
      <point x="521" y="525" type="line"/>
      <point x="596" y="279" type="line"/>
      <point x="657" y="525" type="line"/>
      <point x="843" y="1100" type="line"/>
      <point x="1153" y="1100" type="line"/>
      <point x="739" y="0" type="line"/>
    </contour>
  </outline>
</glyph>
<glyph name="w" format="1">
  <advance width="1749"/>
  <unicode hex="0077"/>
  <outline>
    <contour>
      <point x="1090" y="0" type="line"/>
      <point x="873" y="837" type="line"/>
      <point x="629" y="0" type="line"/>
      <point x="344" y="0" type="line"/>
      <point x="11" y="1100" type="line"/>
      <point x="309" y="1100" type="line"/>
      <point x="506" y="324" type="line"/>
      <point x="730" y="1100" type="line"/>
      <point x="1025" y="1100" type="line"/>
      <point x="1226" y="327" type="line"/>
      <point x="1444" y="1100" type="line"/>
      <point x="1738" y="1100" type="line"/>
      <point x="1378" y="0" type="line"/>
    </contour>
    <contour>
      <point x="875" y="1098" type="move" name="top"/>
    </contour>
  </outline>
</glyph>
<glyph name="x" format="1">
  <advance width="1191"/>
  <unicode hex="0078"/>
  <outline>
    <contour>
      <point x="399" y="564" type="line"/>
      <point x="37" y="1100" type="line"/>
      <point x="370" y="1100" type="line"/>
      <point x="597" y="740" type="line"/>
      <point x="834" y="1100" type="line"/>
      <point x="1159" y="1100" type="line"/>
      <point x="790" y="566" type="line"/>
      <point x="1173" y="0" type="line"/>
      <point x="836" y="0" type="line"/>
      <point x="597" y="385" type="line"/>
      <point x="348" y="0" type="line"/>
      <point x="17" y="0" type="line"/>
    </contour>
  </outline>
</glyph>
<glyph name="y" format="1">
  <advance width="1140"/>
  <unicode hex="0079"/>
  <outline>
    <contour>
      <point x="-9" y="1100" type="line"/>
      <point x="305" y="1100" type="line"/>
      <point x="574" y="332" type="line"/>
      <point x="648.376" y="600.624"/>
      <point x="743.133" y="840.867"/>
      <point x="827" y="1100" type="curve"/>
      <point x="1142" y="1100" type="line"/>
      <point x="680" y="-104" type="line" smooth="yes"/>
      <point x="581" y="-362"/>
      <point x="438" y="-451"/>
      <point x="212" y="-451" type="curve" smooth="yes"/>
      <point x="162" y="-451"/>
      <point x="113" y="-448"/>
      <point x="64" y="-443" type="curve"/>
      <point x="50" y="-220" type="line"/>
      <point x="91" y="-225"/>
      <point x="136" y="-226"/>
      <point x="179" y="-226" type="curve" smooth="yes"/>
      <point x="286" y="-226"/>
      <point x="356" y="-190"/>
      <point x="402" y="-72" type="curve" smooth="yes"/>
      <point x="413" y="-46"/>
      <point x="423" y="-14"/>
      <point x="435" y="24" type="curve"/>
    </contour>
    <contour>
      <point x="570" y="1098" type="move" name="top"/>
    </contour>
  </outline>
</glyph>
<glyph name="z" format="1">
  <advance width="998"/>
  <unicode hex="007A"/>
  <outline>
    <contour>
      <point x="945" y="0" type="line"/>
      <point x="65" y="0" type="line"/>
      <point x="65" y="170" type="line"/>
      <point x="574" y="901" type="line"/>
      <point x="94" y="901" type="line"/>
      <point x="94" y="1100" type="line"/>
      <point x="928" y="1100" type="line"/>
      <point x="928" y="936" type="line"/>
      <point x="427" y="211" type="line"/>
      <point x="945" y="211" type="line"/>
    </contour>
    <contour>
      <point x="499" y="1098" type="move" name="top"/>
    </contour>
  </outline>
</glyph>
<glyph name="bar" format="1">
  <advance width="746"/>
  <unicode hex="007C"/>
  <outline>
    <contour>
      <point x="262" y="1524" type="line"/>
      <point x="484" y="1524" type="line"/>
      <point x="484" y="-373" type="line"/>
      <point x="262" y="-373" type="line"/>
    </contour>
  </outline>
</glyph>
<glyph name="asciitilde" format="1">
  <advance width="1311"/>
  <unicode hex="007E"/>
  <outline>
    <contour>
      <point x="415" y="605" type="curve" smooth="yes"/>
      <point x="320" y="605"/>
      <point x="258" y="534"/>
      <point x="218" y="460" type="curve"/>
      <point x="133" y="619" type="line"/>
      <point x="187" y="723"/>
      <point x="270" y="812"/>
      <point x="425" y="812" type="curve" smooth="yes"/>
      <point x="514" y="812"/>
      <point x="612" y="782"/>
      <point x="695" y="747" type="curve" smooth="yes"/>
      <point x="782" y="709"/>
      <point x="847" y="688"/>
      <point x="909" y="688" type="curve" smooth="yes"/>
      <point x="989" y="688"/>
      <point x="1055" y="721"/>
      <point x="1151" y="817" type="curve"/>
      <point x="1227" y="669" type="line"/>
      <point x="1174" y="579"/>
      <point x="1036" y="476"/>
      <point x="888" y="476" type="curve" smooth="yes"/>
      <point x="786" y="476"/>
      <point x="713" y="507"/>
      <point x="613" y="552" type="curve"/>
      <point x="547" y="583"/>
      <point x="493" y="605"/>
    </contour>
  </outline>
</glyph>
<glyph name="sterling" format="1">
  <advance width="1155"/>
  <unicode hex="00A3"/>
  <outline>
    <contour>
      <point x="705" y="1481" type="curve" smooth="yes"/>
      <point x="866" y="1481"/>
      <point x="996" y="1425"/>
      <point x="1100" y="1338" type="curve"/>
      <point x="988" y="1153" type="line"/>
      <point x="900" y="1209"/>
      <point x="820" y="1252"/>
      <point x="718" y="1252" type="curve" smooth="yes"/>
      <point x="581" y="1252"/>
      <point x="521" y="1167"/>
      <point x="521" y="1025" type="curve" smooth="yes"/>
      <point x="521" y="846" type="line"/>
      <point x="906" y="846" type="line"/>
      <point x="906" y="652" type="line"/>
      <point x="521" y="652" type="line"/>
      <point x="521" y="505" type="line" smooth="yes"/>
      <point x="521" y="390"/>
      <point x="486" y="299"/>
      <point x="412" y="233" type="curve"/>
      <point x="521.245869592" y="233.0" type="line"/>
      <point x="1117" y="233" type="line"/>
      <point x="1107" y="0" type="line"/>
      <point x="81" y="0" type="line"/>
      <point x="64" y="207" type="line"/>
      <point x="196" y="264"/>
      <point x="246" y="321"/>
      <point x="246" y="475" type="curve" smooth="yes"/>
      <point x="246" y="651" type="line"/>
      <point x="61" y="651" type="line"/>
      <point x="61" y="846" type="line"/>
      <point x="246" y="846" type="line"/>
      <point x="246" y="954" type="line" smooth="yes"/>
      <point x="246.0" y="1274.82983838"/>
      <point x="385.118198036" y="1481.0"/>
    </contour>
  </outline>
</glyph>
<glyph name="brokenbar" format="1">
  <advance width="826"/>
  <unicode hex="00A6"/>
  <outline>
    <contour>
      <point x="301" y="350" type="line"/>
      <point x="522" y="350" type="line"/>
      <point x="522" y="-372" type="line"/>
      <point x="301" y="-372" type="line"/>
    </contour>
    <contour>
      <point x="301" y="1524" type="line"/>
      <point x="522" y="1524" type="line"/>
      <point x="522" y="802" type="line"/>
      <point x="301" y="802" type="line"/>
    </contour>
  </outline>
</glyph>
<glyph name="section" format="1">
  <advance width="1040"/>
  <unicode hex="00A7"/>
  <outline>
    <contour>
      <point x="130" y="769" type="curve" smooth="yes"/>
      <point x="130" y="880"/>
      <point x="191" y="964"/>
      <point x="266" y="1015" type="curve"/>
      <point x="191" y="1069"/>
      <point x="147" y="1144"/>
      <point x="147" y="1246" type="curve" smooth="yes"/>
      <point x="147" y="1447"/>
      <point x="334" y="1541"/>
      <point x="563" y="1541" type="curve" smooth="yes"/>
      <point x="668" y="1541"/>
      <point x="777" y="1520"/>
      <point x="884" y="1480" type="curve"/>
      <point x="844" y="1284" type="line"/>
      <point x="770" y="1316"/>
      <point x="662" y="1345"/>
      <point x="559" y="1345" type="curve" smooth="yes"/>
      <point x="461" y="1345"/>
      <point x="400" y="1319"/>
      <point x="400" y="1248" type="curve" smooth="yes"/>
      <point x="400" y="1184"/>
      <point x="467" y="1143"/>
      <point x="589" y="1093" type="curve" smooth="yes"/>
      <point x="773" y="1018"/>
      <point x="925" y="927"/>
      <point x="925" y="759" type="curve" smooth="yes"/>
      <point x="925" y="642"/>
      <point x="869" y="560"/>
      <point x="795" y="507" type="curve"/>
      <point x="868" y="456"/>
      <point x="914" y="388"/>
      <point x="914" y="286" type="curve" smooth="yes"/>
      <point x="914" y="72"/>
      <point x="725" y="-31"/>
      <point x="481" y="-31" type="curve" smooth="yes"/>
      <point x="353" y="-31"/>
      <point x="232" y="-6"/>
      <point x="136" y="39" type="curve"/>
      <point x="136" y="242" type="line"/>
      <point x="226" y="201"/>
      <point x="368" y="164"/>
      <point x="468" y="164" type="curve" smooth="yes"/>
      <point x="562" y="164"/>
      <point x="633" y="186"/>
      <point x="648" y="245" type="curve"/>
      <point x="655" y="262"/>
      <point x="654" y="281"/>
      <point x="647" y="301" type="curve"/>
      <point x="633" y="354"/>
      <point x="582" y="377"/>
      <point x="472" y="426" type="curve"/>
      <point x="270" y="508"/>
      <point x="130" y="593"/>
    </contour>
    <contour>
      <point x="364" y="798" type="curve" smooth="yes"/>
      <point x="364" y="711"/>
      <point x="482" y="644"/>
      <point x="614" y="593" type="curve"/>
      <point x="670" y="631"/>
      <point x="695" y="673"/>
      <point x="695" y="719" type="curve" smooth="yes"/>
      <point x="695" y="807"/>
      <point x="583" y="868"/>
      <point x="446" y="921" type="curve"/>
      <point x="395" y="893"/>
      <point x="364" y="846"/>
    </contour>
  </outline>
</glyph>
<glyph name="dieresis" format="1">
  <advance width="773"/>
  <unicode hex="00A8"/>
  <outline>
    <contour>
      <point x="705" y="1230" type="line"/>
      <point x="496" y="1230" type="line"/>
      <point x="496" y="1498" type="line"/>
      <point x="705" y="1498" type="line"/>
    </contour>
    <contour>
      <point x="273" y="1230" type="line"/>
      <point x="65" y="1230" type="line"/>
      <point x="65" y="1498" type="line"/>
      <point x="273" y="1498" type="line"/>
    </contour>
    <contour>
      <point x="385" y="1098" type="move" name="_top"/>
    </contour>
  </outline>
</glyph>
<glyph name="ordfeminine" format="1">
  <advance width="740"/>
  <unicode hex="00AA"/>
  <outline>
    <contour>
      <point x="282" y="725" type="curve" smooth="yes"/>
      <point x="163" y="725"/>
      <point x="57" y="793"/>
      <point x="57" y="934" type="curve" smooth="yes"/>
      <point x="57" y="1151"/>
      <point x="327" y="1162"/>
      <point x="493" y="1185" type="curve"/>
      <point x="493" y="1222" type="line" smooth="yes"/>
      <point x="493" y="1320"/>
      <point x="452" y="1354"/>
      <point x="372" y="1354" type="curve" smooth="yes"/>
      <point x="309" y="1354"/>
      <point x="220" y="1333"/>
      <point x="111" y="1306" type="curve"/>
      <point x="75" y="1427" type="line"/>
      <point x="173" y="1461"/>
      <point x="289" y="1488"/>
      <point x="392" y="1488" type="curve" smooth="yes"/>
      <point x="545" y="1488"/>
      <point x="672" y="1429"/>
      <point x="672" y="1247" type="curve" smooth="yes"/>
      <point x="672.0" y="848.969019592" type="line"/>
      <point x="672" y="736" type="line"/>
      <point x="531" y="736" type="line"/>
      <point x="509" y="823" type="line"/>
      <point x="465" y="765"/>
      <point x="361" y="725"/>
    </contour>
    <contour>
      <point x="300" y="858" type="curve" smooth="yes"/>
      <point x="351" y="858"/>
      <point x="429" y="879"/>
      <point x="493" y="937" type="curve"/>
      <point x="493" y="1076" type="line"/>
      <point x="315" y="1051"/>
      <point x="226" y="1025"/>
      <point x="226" y="941" type="curve" smooth="yes"/>
      <point x="226" y="888"/>
      <point x="260" y="858"/>
    </contour>
    <contour>
      <point x="105" y="627" type="line"/>
      <point x="671" y="627" type="line"/>
      <point x="671" y="503" type="line"/>
      <point x="105" y="503" type="line"/>
    </contour>
  </outline>
</glyph>
<glyph name="macron" format="1">
  <advance width="862"/>
  <unicode hex="00AF"/>
  <outline>
    <contour>
      <point x="777" y="1498" type="line"/>
      <point x="777" y="1335" type="line"/>
      <point x="98" y="1335" type="line"/>
      <point x="98" y="1498" type="line"/>
    </contour>
    <contour>
      <point x="437.5" y="1098" type="move" name="_top"/>
    </contour>
  </outline>
</glyph>
<glyph name="plusminus" format="1">
  <advance width="1317"/>
  <unicode hex="00B1"/>
  <outline>
    <contour>
      <point x="184" y="0" type="line"/>
      <point x="184" y="188" type="line"/>
      <point x="1139" y="188" type="line"/>
      <point x="1139" y="0" type="line"/>
    </contour>
    <contour>
      <point x="772" y="840" type="line"/>
      <point x="1140" y="840" type="line"/>
      <point x="1140" y="632" type="line"/>
      <point x="772" y="632" type="line"/>
      <point x="772" y="270" type="line"/>
      <point x="552" y="270" type="line"/>
      <point x="552" y="632" type="line"/>
      <point x="184" y="632" type="line"/>
      <point x="184" y="840" type="line"/>
      <point x="552" y="840" type="line"/>
      <point x="552" y="1192" type="line"/>
      <point x="772" y="1192" type="line"/>
    </contour>
  </outline>
</glyph>
<glyph name="uni00B2" format="1">
  <advance width="858"/>
  <unicode hex="00B2"/>
  <outline>
    <contour>
      <point x="405" y="1236" type="curve" smooth="yes"/>
      <point x="331.936" y="1236"/>
      <point x="243.099" y="1189.87"/>
      <point x="196" y="1131" type="curve"/>
      <point x="174.163" y="1174.67"/>
      <point x="153.298" y="1219.01"/>
      <point x="132" y="1263" type="curve"/>
      <point x="134" y="1265" type="line"/>
      <point x="197" y="1347"/>
      <point x="301" y="1401"/>
      <point x="433" y="1401" type="curve" smooth="yes"/>
      <point x="586" y="1401"/>
      <point x="727" y="1293"/>
      <point x="727" y="1116" type="curve" smooth="yes"/>
      <point x="727" y="924"/>
      <point x="599" y="841"/>
      <point x="415" y="694" type="curve"/>
      <point x="730" y="694" type="line"/>
      <point x="709" y="548" type="line"/>
      <point x="150" y="548" type="line"/>
      <point x="150" y="698" type="line"/>
      <point x="152" y="699" type="line"/>
      <point x="335" y="842"/>
      <point x="546" y="961"/>
      <point x="546" y="1111" type="curve" smooth="yes"/>
      <point x="546" y="1193"/>
      <point x="470" y="1236"/>
    </contour>
  </outline>
</glyph>
<glyph name="ordmasculine" format="1">
  <advance width="854"/>
  <unicode hex="00BA"/>
  <outline>
    <contour>
      <point x="814" y="1101" type="curve" smooth="yes"/>
      <point x="814" y="876"/>
      <point x="670" y="717"/>
      <point x="434" y="717" type="curve" smooth="yes"/>
      <point x="190" y="717"/>
      <point x="48" y="873"/>
      <point x="48" y="1104" type="curve" smooth="yes"/>
      <point x="48" y="1331"/>
      <point x="196" y="1486"/>
      <point x="433" y="1486" type="curve" smooth="yes"/>
      <point x="673" y="1486"/>
      <point x="814" y="1329"/>
    </contour>
    <contour>
      <point x="241" y="1113" type="curve"/>
      <point x="241" y="1103" type="line" smooth="yes"/>
      <point x="241" y="971"/>
      <point x="297" y="885"/>
      <point x="434" y="885" type="curve" smooth="yes"/>
      <point x="567" y="885"/>
      <point x="623" y="972"/>
      <point x="623" y="1099" type="curve" smooth="yes"/>
      <point x="623" y="1231"/>
      <point x="566" y="1319"/>
      <point x="430" y="1319" type="curve" smooth="yes"/>
      <point x="300" y="1319"/>
      <point x="244" y="1232"/>
    </contour>
  </outline>
</glyph>
<glyph name="onehalf" format="1">
  <advance width="1876"/>
  <unicode hex="00BD"/>
  <outline>
    <contour>
      <point x="101" y="1193" type="line"/>
      <point x="271" y="1269" type="line"/>
      <point x="272" y="750" type="line"/>
      <point x="122" y="750" type="line"/>
      <point x="122" y="584" type="line"/>
      <point x="634" y="584" type="line"/>
      <point x="634" y="750" type="line"/>
      <point x="488" y="750" type="line"/>
      <point x="488" y="1466" type="line"/>
      <point x="294.5" y="1411.0" type="line"/>
      <point x="101" y="1356" type="line"/>
    </contour>
    <contour>
      <point x="1599" y="534" type="curve" smooth="yes"/>
      <point x="1599" y="384"/>
      <point x="1388" y="265"/>
      <point x="1205" y="122" type="curve"/>
      <point x="1205" y="122"/>
      <point x="1203.0" y="-29.0"/>
      <point x="1203" y="-29" type="curve"/>
      <point x="1762" y="-29" type="line"/>
      <point x="1783" y="117" type="line"/>
      <point x="1468" y="117" type="line"/>
      <point x="1652" y="264"/>
      <point x="1780" y="346"/>
      <point x="1780" y="538" type="curve" smooth="yes"/>
      <point x="1780" y="715"/>
      <point x="1639" y="824"/>
      <point x="1486" y="824" type="curve" smooth="yes"/>
      <point x="1354" y="824"/>
      <point x="1250" y="769"/>
      <point x="1187" y="687" type="curve"/>
      <point x="1187" y="687"/>
      <point x="1227.16" y="596.674"/>
      <point x="1249" y="553" type="curve"/>
      <point x="1296.08" y="611.856"/>
      <point x="1384.97" y="659"/>
      <point x="1458" y="659" type="curve" smooth="yes"/>
      <point x="1523" y="659"/>
      <point x="1599" y="616"/>
    </contour>
    <contour>
      <point x="1386" y="1446" type="line"/>
      <point x="331" y="0" type="line"/>
      <point x="553" y="0" type="line"/>
      <point x="1605" y="1446" type="line"/>
    </contour>
  </outline>
</glyph>
<glyph name="threequarters" format="1">
  <advance width="1701"/>
  <unicode hex="00BE"/>
  <outline>
    <contour>
      <point x="133" y="1247" type="curve"/>
      <point x="67" y="1355" type="line"/>
      <point x="139.20460168" y="1408.41162316"/>
      <point x="249.74529796" y="1441.29910563"/>
      <point x="354.89158632" y="1442.71585255" type="curve" smooth="yes"/>
      <point x="505.477987165" y="1444.74486208"/>
      <point x="645.0" y="1382.22472475"/>
      <point x="645" y="1223" type="curve" smooth="yes"/>
      <point x="645" y="1223"/>
      <point x="602.0" y="1105.0"/>
      <point x="518" y="1071" type="curve"/>
      <point x="594" y="1046"/>
      <point x="663" y="968"/>
      <point x="663" y="878" type="curve" smooth="yes"/>
      <point x="663" y="702"/>
      <point x="513" y="617"/>
      <point x="346" y="617" type="curve" smooth="yes"/>
      <point x="255" y="617"/>
      <point x="159" y="642"/>
      <point x="79" y="692" type="curve"/>
      <point x="126" y="820" type="line"/>
      <point x="172" y="783"/>
      <point x="270" y="763"/>
      <point x="337" y="763" type="curve" smooth="yes"/>
      <point x="427" y="763"/>
      <point x="482" y="799"/>
      <point x="482" y="884" type="curve" smooth="yes"/>
      <point x="482" y="959"/>
      <point x="417" y="991"/>
      <point x="303" y="991" type="curve"/>
      <point x="217" y="990" type="line"/>
      <point x="217" y="1128" type="line"/>
      <point x="307" y="1128" type="line" smooth="yes"/>
      <point x="423" y="1128"/>
      <point x="457" y="1170"/>
      <point x="457" y="1217" type="curve" smooth="yes"/>
      <point x="457" y="1262"/>
      <point x="423" y="1298"/>
      <point x="342" y="1298" type="curve" smooth="yes"/>
      <point x="266" y="1298"/>
      <point x="172" y="1272"/>
    </contour>
    <contour>
      <point x="1514" y="0" type="line"/>
      <point x="1340" y="0" type="line"/>
      <point x="1340" y="172" type="line"/>
      <point x="932" y="172" type="line"/>
      <point x="932" y="328" type="line"/>
      <point x="1322" y="884" type="line"/>
      <point x="1516" y="884" type="line"/>
      <point x="1516" y="313" type="line"/>
      <point x="1637" y="313" type="line"/>
      <point x="1637" y="172" type="line"/>
      <point x="1515" y="172" type="line"/>
    </contour>
    <contour>
      <point x="1316" y="1446" type="line"/>
      <point x="1529" y="1446" type="line"/>
      <point x="488" y="0" type="line"/>
      <point x="262" y="0" type="line"/>
    </contour>
    <contour>
      <point x="1140" y="313" type="line"/>
      <point x="1338" y="313" type="line"/>
      <point x="1338" y="646" type="line"/>
    </contour>
  </outline>
</glyph>
<glyph name="dotlessi" format="1">
  <advance width="587"/>
  <unicode hex="0131"/>
  <outline>
    <contour>
      <point x="410" y="1098" type="line"/>
      <point x="410" y="0" type="line"/>
      <point x="127" y="0" type="line"/>
      <point x="127" y="1098" type="line"/>
    </contour>
    <contour>
      <point x="294" y="1098" type="move" name="top"/>
    </contour>
    <contour>
      <point x="528" y="10" type="move" name="ogonek"/>
    </contour>
  </outline>
</glyph>
<glyph name="ldot" format="1">
  <advance width="687"/>
  <unicode hex="0140"/>
  <outline>
    <contour>
      <point x="1023" y="733" type="line"/>
      <point x="1023" y="463" type="line"/>
      <point x="757" y="463" type="line"/>
      <point x="757" y="733" type="line"/>
    </contour>
    <component base="l"/>
  </outline>
</glyph>
<glyph name="uni018F" format="1">
  <advance width="1461"/>
  <unicode hex="018F"/>
  <outline>
    <contour>
      <point x="1040" y="583" type="curve"/>
      <point x="349" y="583" type="line"/>
      <point x="367" y="346"/>
      <point x="478" y="211"/>
      <point x="662" y="211" type="curve" smooth="yes"/>
      <point x="881" y="211"/>
      <point x="1003" y="365"/>
    </contour>
    <contour>
      <point x="649" y="-20" type="curve" smooth="yes"/>
      <point x="319.464881778" y="-20.0"/>
      <point x="92.3859404013" y="182.143267831"/>
      <point x="75.0652511022" y="722.99608106" type="curve" smooth="yes"/>
      <point x="74.3575236983" y="745.095453135"/>
      <point x="74.0" y="767.760320663"/>
      <point x="74" y="791" type="curve"/>
      <point x="1051" y="791" type="line"/>
      <point x="1029" y="1092"/>
      <point x="858" y="1243"/>
      <point x="594" y="1243" type="curve" smooth="yes"/>
      <point x="436" y="1243"/>
      <point x="304" y="1199"/>
      <point x="203" y="1142" type="curve"/>
      <point x="113" y="1337" type="line"/>
      <point x="241" y="1437"/>
      <point x="405" y="1478"/>
      <point x="605" y="1478" type="curve" smooth="yes"/>
      <point x="1082" y="1478"/>
      <point x="1355" y="1154"/>
      <point x="1355" y="733" type="curve" smooth="yes"/>
      <point x="1355" y="269"/>
      <point x="1059" y="-20"/>
    </contour>
  </outline>
</glyph>
<glyph name="tilde" format="1">
  <advance width="753"/>
  <unicode hex="02DC"/>
  <outline>
    <contour>
      <point x="179" y="1209" type="curve"/>
      <point x="23" y="1209" type="line"/>
      <point x="23" y="1297"/>
      <point x="23" y="1455"/>
      <point x="195" y="1455" type="curve" smooth="yes"/>
      <point x="331" y="1455"/>
      <point x="469" y="1374"/>
      <point x="525" y="1374" type="curve" smooth="yes"/>
      <point x="556" y="1374"/>
      <point x="572" y="1399"/>
      <point x="572" y="1455" type="curve"/>
      <point x="731" y="1455" type="line"/>
      <point x="731" y="1374"/>
      <point x="731" y="1209"/>
      <point x="559" y="1209" type="curve" smooth="yes"/>
      <point x="444" y="1209"/>
      <point x="260" y="1297"/>
      <point x="228" y="1297" type="curve" smooth="yes"/>
      <point x="194" y="1297"/>
      <point x="179" y="1272"/>
    </contour>
    <contour>
      <point x="377" y="1098" type="move" name="_top"/>
    </contour>
  </outline>
</glyph>
<glyph name="uni0311" format="1">
  <advance width="695"/>
  <unicode hex="0311"/>
  <outline>
    <contour>
      <point x="343" y="1455" type="curve" smooth="yes"/>
      <point x="506.0" y="1455.0"/>
      <point x="647" y="1206"/>
      <point x="647" y="1206" type="curve"/>
      <point x="463" y="1206" type="line"/>
      <point x="463" y="1206"/>
      <point x="424.0" y="1287.0"/>
      <point x="343" y="1287" type="curve" smooth="yes"/>
      <point x="262.0" y="1287.0"/>
      <point x="223" y="1206"/>
      <point x="223" y="1206" type="curve"/>
      <point x="39" y="1206" type="line"/>
      <point x="39" y="1206"/>
      <point x="180.0" y="1455.0"/>
    </contour>
  </outline>
</glyph>
<glyph name="commaaccent" format="1">
  <advance width="657"/>
  <unicode hex="0326"/>
  <outline>
    <contour>
      <point x="282" y="-653" type="line"/>
      <point x="97" y="-653" type="line"/>
      <point x="213" y="-130" type="line"/>
      <point x="457" y="-130" type="line"/>
    </contour>
    <contour>
      <point x="277" y="0" type="line" smooth="yes"/>
    </contour>
    <contour>
      <point x="277" y="0" type="move" name="_bottom"/>
    </contour>
  </outline>
</glyph>
<glyph name="Epsilon" format="1">
  <advance width="1149"/>
  <unicode hex="0395"/>
  <outline>
    <component base="E"/>
    <contour>
      <point x="575" y="1444" type="move" name="top"/>
    </contour>
  </outline>
</glyph>
<glyph name="omicron" format="1">
  <advance width="1229"/>
  <unicode hex="03BF"/>
  <outline>
    <component base="o"/>
    <contour>
      <point x="615" y="1098" type="move" name="top"/>
    </contour>
  </outline>
</glyph>
<glyph name="afii10055" format="1">
  <advance width="622"/>
  <unicode hex="0406"/>
  <outline>
    <component base="I"/>
    <contour>
      <point x="311" y="1444" type="move" name="top"/>
    </contour>
  </outline>
</glyph>
<glyph name="afii10145" format="1">
  <advance width="1487"/>
  <unicode hex="040F"/>
  <outline>
    <contour>
      <point x="864" y="0" type="line"/>
      <point x="864" y="-327" type="line"/>
      <point x="638" y="-327" type="line"/>
      <point x="638" y="0" type="line"/>
      <point x="125" y="0" type="line"/>
      <point x="125" y="1445" type="line"/>
      <point x="423" y="1445" type="line"/>
      <point x="423" y="210" type="line"/>
      <point x="1072" y="210" type="line"/>
      <point x="1072" y="1445" type="line"/>
      <point x="1370" y="1445" type="line"/>
      <point x="1370" y="0" type="line"/>
    </contour>
  </outline>
</glyph>
<glyph name="afii10018" format="1">
  <advance width="1338"/>
  <unicode hex="0411"/>
  <outline>
    <contour>
      <point x="125" y="1445" type="line"/>
      <point x="1149" y="1445" type="line"/>
      <point x="1149" y="1227" type="line"/>
      <point x="424" y="1227" type="line"/>
      <point x="423" y="865" type="line"/>
      <point x="712" y="865" type="line" smooth="yes"/>
      <point x="1016" y="865"/>
      <point x="1269" y="744"/>
      <point x="1269" y="433" type="curve" smooth="yes"/>
      <point x="1269" y="121"/>
      <point x="1000" y="0"/>
      <point x="678" y="0" type="curve" smooth="yes"/>
      <point x="125" y="0" type="line"/>
    </contour>
    <contour>
      <point x="979" y="434" type="curve" smooth="yes"/>
      <point x="979" y="585"/>
      <point x="865" y="647"/>
      <point x="696" y="647" type="curve" smooth="yes"/>
      <point x="423" y="647" type="line"/>
      <point x="423" y="217" type="line"/>
      <point x="697" y="217" type="line" smooth="yes"/>
      <point x="868" y="217"/>
      <point x="979" y="281"/>
    </contour>
  </outline>
</glyph>
<glyph name="afii10020" format="1">
  <advance width="1603"/>
  <unicode hex="0413"/>
  <outline>
    <contour>
      <point x="1063" y="1227" type="line"/>
      <point x="423" y="1227" type="line"/>
      <point x="423" y="0" type="line"/>
      <point x="125" y="0" type="line"/>
      <point x="125" y="1445" type="line"/>
      <point x="1087" y="1445" type="line"/>
    </contour>
    <contour>
      <point x="802" y="1444" type="move" name="top"/>
    </contour>
  </outline>
</glyph>
<glyph name="afii10022" format="1">
  <advance width="1290"/>
  <unicode hex="0415"/>
  <outline>
    <contour>
      <point x="1107" y="869" type="line"/>
      <point x="1107" y="651" type="line"/>
      <point x="469" y="651" type="line"/>
      <point x="469" y="233" type="line"/>
      <point x="1186" y="233" type="line"/>
      <point x="1167" y="15" type="line"/>
      <point x="188" y="15" type="line"/>
      <point x="188" y="1440" type="line"/>
      <point x="1155" y="1440" type="line"/>
      <point x="1136" y="1222" type="line"/>
      <point x="469" y="1222" type="line"/>
      <point x="469" y="869" type="line"/>
    </contour>
    <contour>
      <point x="645" y="1444" type="move" name="top"/>
    </contour>
  </outline>
</glyph>
<glyph name="afii10028" format="1">
  <advance width="1348"/>
  <unicode hex="041A"/>
  <outline>
    <component base="K"/>
    <contour>
      <point x="674" y="1444" type="move" name="top"/>
    </contour>
  </outline>
</glyph>
<glyph name="afii10029" format="1">
  <advance width="1482"/>
  <unicode hex="041B"/>
  <outline>
    <contour>
      <point x="1361" y="1445" type="line"/>
      <point x="1361" y="0" type="line"/>
      <point x="1063" y="0" type="line"/>
      <point x="1063" y="1235" type="line"/>
      <point x="538" y="1235" type="line"/>
      <point x="538" y="447" type="line" smooth="yes"/>
      <point x="538" y="120"/>
      <point x="431" y="-18"/>
      <point x="61" y="-18" type="curve" smooth="yes"/>
      <point x="0" y="-18" type="line"/>
      <point x="0" y="223" type="line"/>
      <point x="58" y="223" type="line"/>
      <point x="215" y="225"/>
      <point x="240" y="282"/>
      <point x="240" y="439" type="curve" smooth="yes"/>
      <point x="240" y="1445" type="line"/>
    </contour>
  </outline>
</glyph>
<glyph name="afii10037" format="1">
  <advance width="1318"/>
  <unicode hex="0423"/>
  <outline>
    <contour>
      <point x="1310" y="1445" type="line"/>
      <point x="791" y="436" type="line"/>
      <point x="791" y="139" type="line" smooth="yes"/>
      <point x="791" y="-184"/>
      <point x="679" y="-303"/>
      <point x="286" y="-303" type="curve" smooth="yes"/>
      <point x="240" y="-303" type="line"/>
      <point x="222" y="-89" type="line"/>
      <point x="307" y="-89" type="line" smooth="yes"/>
      <point x="466" y="-89"/>
      <point x="493" y="-28"/>
      <point x="493" y="130" type="curve" smooth="yes"/>
      <point x="493" y="436" type="line"/>
      <point x="-37" y="1445" type="line"/>
      <point x="282" y="1445" type="line"/>
      <point x="638" y="732" type="line"/>
      <point x="995" y="1445" type="line"/>
    </contour>
    <contour>
      <point x="659" y="1444" type="move" name="top"/>
    </contour>
  </outline>
</glyph>
<glyph name="afii10038" format="1">
  <advance width="1840"/>
  <unicode hex="0424"/>
  <outline>
    <contour>
      <point x="1069" y="1445" type="line"/>
      <point x="1069" y="1318" type="line"/>
      <point x="1469" y="1318"/>
      <point x="1771" y="1082"/>
      <point x="1771" y="757" type="curve" smooth="yes"/>
      <point x="1771" y="420"/>
      <point x="1469" y="173"/>
      <point x="1069" y="172" type="curve"/>
      <point x="1069" y="0" type="line"/>
      <point x="781" y="0" type="line"/>
      <point x="778" y="172" type="line" smooth="yes"/>
      <point x="377" y="172"/>
      <point x="74" y="420"/>
      <point x="74" y="757" type="curve" smooth="yes"/>
      <point x="74" y="1082"/>
      <point x="377" y="1318"/>
      <point x="778" y="1318" type="curve" smooth="yes"/>
      <point x="778" y="1318"/>
      <point x="781.0" y="1445.0"/>
      <point x="781" y="1445" type="curve"/>
    </contour>
    <contour>
      <point x="778" y="1093" type="curve" smooth="yes"/>
      <point x="502" y="1093"/>
      <point x="361" y="922"/>
      <point x="361" y="752" type="curve" smooth="yes"/>
      <point x="361" y="569"/>
      <point x="503" y="397"/>
      <point x="778" y="397" type="curve" smooth="yes"/>
      <point x="778" y="397"/>
      <point x="778.0" y="1093.0"/>
    </contour>
    <contour>
      <point x="1069" y="1093" type="curve"/>
      <point x="1069" y="397" type="line"/>
      <point x="1343" y="398"/>
      <point x="1484" y="569"/>
      <point x="1484" y="752" type="curve" smooth="yes"/>
      <point x="1484" y="922"/>
      <point x="1344" y="1092"/>
    </contour>
  </outline>
</glyph>
<glyph name="afii10040" format="1">
  <advance width="1560"/>
  <unicode hex="0426"/>
  <outline>
    <contour>
      <point x="1080" y="210" type="line"/>
      <point x="1080" y="1445" type="line"/>
      <point x="1378" y="1445" type="line"/>
      <point x="1378" y="88" type="line"/>
      <point x="1533" y="88" type="line"/>
      <point x="1533" y="-365" type="line"/>
      <point x="1278" y="-365" type="line"/>
      <point x="1277" y="0" type="line"/>
      <point x="125" y="0" type="line"/>
      <point x="125" y="1445" type="line"/>
      <point x="423" y="1445" type="line"/>
      <point x="423" y="210" type="line"/>
    </contour>
  </outline>
</glyph>
<glyph name="afii10041" format="1">
  <advance width="1997"/>
  <unicode hex="0427"/>
  <outline>
    <contour>
      <point x="1125" y="794" type="line"/>
      <point x="1125" y="1440" type="line"/>
      <point x="1389" y="1440" type="line"/>
      <point x="1389" y="15" type="line"/>
      <point x="1125" y="15" type="line"/>
      <point x="1124" y="576" type="line"/>
      <point x="868" y="576" type="line" smooth="yes"/>
      <point x="480" y="576"/>
      <point x="194" y="615"/>
      <point x="194" y="1008" type="curve" smooth="yes"/>
      <point x="194" y="1440" type="line"/>
      <point x="435" y="1440" type="line"/>
      <point x="435" y="1009" type="line" smooth="yes"/>
      <point x="435" y="818"/>
      <point x="558" y="794"/>
      <point x="816" y="794" type="curve" smooth="yes"/>
    </contour>
  </outline>
</glyph>
<glyph name="afii10042" format="1">
  <advance width="1887"/>
  <unicode hex="0428"/>
  <outline>
    <contour>
      <point x="423" y="210" type="line"/>
      <point x="822" y="210" type="line"/>
      <point x="822" y="1445" type="line"/>
      <point x="1120" y="1445" type="line"/>
      <point x="1120" y="210" type="line"/>
      <point x="1473" y="210" type="line"/>
      <point x="1473" y="1445" type="line"/>
      <point x="1771" y="1445" type="line"/>
      <point x="1771" y="0" type="line"/>
      <point x="125" y="0" type="line"/>
      <point x="125" y="1445" type="line"/>
      <point x="423" y="1445" type="line"/>
    </contour>
  </outline>
</glyph>
<glyph name="afii10044" format="1">
  <advance width="1588"/>
  <unicode hex="042A"/>
  <outline>
    <contour>
      <point x="376" y="15" type="line"/>
      <point x="376" y="1222" type="line"/>
      <point x="46" y="1222" type="line"/>
      <point x="46" y="1440" type="line"/>
      <point x="635" y="1440" type="line"/>
      <point x="635" y="960" type="line"/>
      <point x="920" y="960" type="line" smooth="yes"/>
      <point x="1229" y="960"/>
      <point x="1507" y="831"/>
      <point x="1507" y="502" type="curve" smooth="yes"/>
      <point x="1507" y="173"/>
      <point x="1324" y="15"/>
      <point x="934" y="15" type="curve" smooth="yes"/>
    </contour>
    <contour>
      <point x="1268" y="489" type="curve" smooth="yes"/>
      <point x="1268" y="642"/>
      <point x="1135" y="742"/>
      <point x="942" y="742" type="curve" smooth="yes"/>
      <point x="635" y="742" type="line"/>
      <point x="635" y="232" type="line"/>
      <point x="954" y="232" type="line" smooth="yes"/>
      <point x="1161" y="232"/>
      <point x="1268" y="333"/>
    </contour>
  </outline>
</glyph>
<glyph name="afii10045" format="1">
  <advance width="1861"/>
  <unicode hex="042B"/>
  <outline>
    <contour>
      <point x="1040" y="489" type="curve" smooth="yes"/>
      <point x="1040" y="642"/>
      <point x="938" y="742"/>
      <point x="745" y="742" type="curve" smooth="yes"/>
      <point x="438" y="742" type="line"/>
      <point x="438" y="232" type="line"/>
      <point x="743" y="232" type="line" smooth="yes"/>
      <point x="939" y="232"/>
      <point x="1040" y="334"/>
    </contour>
    <contour>
      <point x="723" y="960" type="line" smooth="yes"/>
      <point x="1040" y="960"/>
      <point x="1292" y="825"/>
      <point x="1292" y="493" type="curve" smooth="yes"/>
      <point x="1292" y="178"/>
      <point x="1049" y="15"/>
      <point x="724" y="15" type="curve" smooth="yes"/>
      <point x="188" y="15" type="line"/>
      <point x="188" y="1440" type="line"/>
      <point x="438" y="1440" type="line"/>
      <point x="438" y="960" type="line"/>
    </contour>
    <contour>
      <point x="1686" y="1440" type="line"/>
      <point x="1687" y="15" type="line"/>
      <point x="1436" y="15" type="line"/>
      <point x="1434" y="1440" type="line"/>
    </contour>
  </outline>
</glyph>
<glyph name="afii10046" format="1">
  <advance width="1340"/>
  <unicode hex="042C"/>
  <outline>
    <contour>
      <point x="438" y="1440" type="line"/>
      <point x="438" y="960" type="line"/>
      <point x="729" y="960" type="line" smooth="yes"/>
      <point x="1057" y="960"/>
      <point x="1297" y="798"/>
      <point x="1297" y="488" type="curve" smooth="yes"/>
      <point x="1297" y="177"/>
      <point x="1059" y="15"/>
      <point x="733" y="15" type="curve" smooth="yes"/>
      <point x="188" y="15" type="line"/>
      <point x="188" y="1440" type="line"/>
    </contour>
    <contour>
      <point x="438" y="742" type="line"/>
      <point x="438" y="232" type="line"/>
      <point x="751" y="232" type="line" smooth="yes"/>
      <point x="949" y="232"/>
      <point x="1053" y="333"/>
      <point x="1053" y="489" type="curve" smooth="yes"/>
      <point x="1053" y="642"/>
      <point x="947" y="742"/>
      <point x="750" y="742" type="curve" smooth="yes"/>
    </contour>
  </outline>
</glyph>
<glyph name="afii10047" format="1">
  <advance width="1419"/>
  <unicode hex="042D"/>
  <outline>
    <contour>
      <point x="589" y="-18" type="curve" smooth="yes"/>
      <point x="440" y="-18"/>
      <point x="276" y="26"/>
      <point x="112" y="115" type="curve"/>
      <point x="201" y="329" type="line"/>
      <point x="317" y="254"/>
      <point x="446" y="207"/>
      <point x="565" y="207" type="curve" smooth="yes"/>
      <point x="793" y="207"/>
      <point x="980" y="356"/>
      <point x="1018" y="641" type="curve"/>
      <point x="350" y="641" type="line"/>
      <point x="350" y="859" type="line"/>
      <point x="1012" y="859" type="line"/>
      <point x="960" y="1101"/>
      <point x="783" y="1253"/>
      <point x="568" y="1253" type="curve" smooth="yes"/>
      <point x="447" y="1253"/>
      <point x="319" y="1205"/>
      <point x="200" y="1122" type="curve"/>
      <point x="109" y="1338" type="line"/>
      <point x="263" y="1432"/>
      <point x="431" y="1478"/>
      <point x="582" y="1478" type="curve" smooth="yes"/>
      <point x="960" y="1478"/>
      <point x="1306" y="1194"/>
      <point x="1306" y="733" type="curve" smooth="yes"/>
      <point x="1306" y="279"/>
      <point x="974" y="-18"/>
    </contour>
  </outline>
</glyph>
<glyph name="afii10048" format="1">
  <advance width="1557"/>
  <unicode hex="042E"/>
  <outline>
    <contour>
      <point x="1332" y="-18" type="curve" smooth="yes"/>
      <point x="921" y="-18"/>
      <point x="698" y="276"/>
      <point x="664" y="645" type="curve"/>
      <point x="439" y="645" type="line"/>
      <point x="439" y="15" type="line"/>
      <point x="188" y="15" type="line"/>
      <point x="188" y="1440" type="line"/>
      <point x="439" y="1440" type="line"/>
      <point x="439" y="855" type="line"/>
      <point x="669" y="855" type="line"/>
      <point x="715" y="1206"/>
      <point x="939" y="1478"/>
      <point x="1332" y="1478" type="curve" smooth="yes"/>
      <point x="1767" y="1478"/>
      <point x="1987" y="1144"/>
      <point x="1987" y="727" type="curve" smooth="yes"/>
      <point x="1987" y="311"/>
      <point x="1765" y="-18"/>
    </contour>
    <contour>
      <point x="1331" y="1253" type="curve" smooth="yes"/>
      <point x="1056" y="1253"/>
      <point x="942" y="1019"/>
      <point x="942" y="735" type="curve" smooth="yes"/>
      <point x="942" y="735"/>
      <point x="1056.0" y="207.0"/>
      <point x="1331" y="207" type="curve" smooth="yes"/>
      <point x="1609" y="207"/>
      <point x="1720" y="447"/>
      <point x="1720" y="735" type="curve" smooth="yes"/>
      <point x="1720" y="1020"/>
      <point x="1606" y="1253"/>
    </contour>
  </outline>
</glyph>
<glyph name="afii10066" format="1">
  <advance width="1113"/>
  <unicode hex="0431"/>
  <outline>
    <contour>
      <point x="625" y="511" type="curve" smooth="yes"/>
      <point x="387" y="511" type="line"/>
      <point x="387" y="201" type="line"/>
      <point x="631" y="201" type="line" smooth="yes"/>
      <point x="728" y="201"/>
      <point x="787" y="277"/>
      <point x="787" y="362" type="curve" smooth="yes"/>
      <point x="787" y="438"/>
      <point x="733" y="511"/>
    </contour>
    <contour>
      <point x="104" y="1098" type="line"/>
      <point x="930" y="1098" type="line"/>
      <point x="930" y="890" type="line"/>
      <point x="386" y="890" type="line"/>
      <point x="386" y="707" type="line"/>
      <point x="642" y="707" type="line" smooth="yes"/>
      <point x="840" y="707"/>
      <point x="1040" y="603"/>
      <point x="1040" y="360" type="curve" smooth="yes"/>
      <point x="1040" y="136"/>
      <point x="878" y="0"/>
      <point x="658" y="0" type="curve" smooth="yes"/>
      <point x="104" y="0" type="line"/>
    </contour>
  </outline>
</glyph>
<glyph name="afii10067" format="1">
  <advance width="1141"/>
  <unicode hex="0432"/>
  <outline>
    <contour>
      <point x="1079" y="320" type="curve" smooth="yes"/>
      <point x="1079" y="91"/>
      <point x="904" y="0"/>
      <point x="676" y="0" type="curve" smooth="yes"/>
      <point x="104" y="0" type="line"/>
      <point x="104" y="1098" type="line"/>
      <point x="648" y="1098" type="line" smooth="yes"/>
      <point x="878" y="1098"/>
      <point x="1050" y="1012"/>
      <point x="1050" y="796" type="curve" smooth="yes"/>
      <point x="1050" y="694"/>
      <point x="988" y="604"/>
      <point x="879" y="574" type="curve"/>
      <point x="1005" y="556"/>
      <point x="1079" y="433"/>
    </contour>
    <contour>
      <point x="684" y="469" type="curve" smooth="yes"/>
      <point x="387" y="469" type="line"/>
      <point x="387" y="200" type="line"/>
      <point x="684" y="200" type="line" smooth="yes"/>
      <point x="783" y="200"/>
      <point x="832" y="266"/>
      <point x="832" y="333" type="curve" smooth="yes"/>
      <point x="832" y="401"/>
      <point x="782" y="469"/>
    </contour>
    <contour>
      <point x="387" y="650" type="line"/>
      <point x="673" y="650" type="line" smooth="yes"/>
      <point x="758" y="650"/>
      <point x="802" y="711"/>
      <point x="802" y="771" type="curve" smooth="yes"/>
      <point x="802" y="830"/>
      <point x="760" y="887"/>
      <point x="673" y="887" type="curve" smooth="yes"/>
      <point x="387" y="887" type="line"/>
    </contour>
  </outline>
</glyph>
<glyph name="afii10068" format="1">
  <advance width="762"/>
  <unicode hex="0433"/>
  <outline>
    <contour>
      <point x="700" y="883" type="line"/>
      <point x="387" y="883" type="line"/>
      <point x="387" y="0" type="line"/>
      <point x="104" y="0" type="line"/>
      <point x="104" y="1098" type="line"/>
      <point x="700" y="1098" type="line"/>
    </contour>
    <contour>
      <point x="381" y="1098" type="move" name="top"/>
    </contour>
  </outline>
</glyph>
<glyph name="afii10069" format="1">
  <advance width="1250"/>
  <unicode hex="0434"/>
  <outline>
    <contour>
      <point x="48" y="-362" type="line"/>
      <point x="48" y="206" type="line"/>
      <point x="126" y="206" type="line"/>
      <point x="192" y="331"/>
      <point x="273" y="588"/>
      <point x="273" y="875" type="curve" smooth="yes"/>
      <point x="273" y="1098" type="line"/>
      <point x="1105" y="1098" type="line"/>
      <point x="1105" y="206" type="line"/>
      <point x="1237" y="206" type="line"/>
      <point x="1237" y="-362" type="line"/>
      <point x="998" y="-362" type="line"/>
      <point x="976" y="0" type="line"/>
      <point x="308" y="0" type="line"/>
      <point x="295" y="-362" type="line"/>
    </contour>
    <contour>
      <point x="446" y="206" type="curve"/>
      <point x="822" y="206" type="line"/>
      <point x="822" y="882" type="line"/>
      <point x="556" y="882" type="line"/>
      <point x="556.0" y="828.681816846"/>
      <point x="554.374086388" y="778.026067232"/>
      <point x="551.498923561" y="730.186314335" type="curve" smooth="yes"/>
      <point x="534.206278081" y="442.454475605"/>
      <point x="471.723140389" y="256.588842764"/>
    </contour>
  </outline>
</glyph>
<glyph name="afii10074" format="1">
  <advance width="1204"/>
  <unicode hex="0438"/>
  <outline>
    <contour>
      <point x="1107" y="0" type="line"/>
      <point x="849" y="0" type="line"/>
      <point x="849" y="611" type="line"/>
      <point x="348" y="0" type="line"/>
      <point x="104" y="0" type="line"/>
      <point x="104" y="1098" type="line"/>
      <point x="367" y="1098" type="line"/>
      <point x="367" y="395" type="line"/>
      <point x="849" y="980" type="line"/>
      <point x="849" y="1098" type="line"/>
      <point x="1107" y="1098" type="line"/>
    </contour>
    <contour>
      <point x="602" y="1098" type="move" name="top"/>
    </contour>
  </outline>
</glyph>
<glyph name="afii10076" format="1">
  <advance width="1169"/>
  <unicode hex="043A"/>
  <outline>
    <contour>
      <point x="387" y="668" type="line"/>
      <point x="387" y="668"/>
      <point x="648.0" y="934.0"/>
      <point x="717" y="1008" type="curve" smooth="yes"/>
      <point x="772" y="1066"/>
      <point x="843" y="1108"/>
      <point x="947" y="1108" type="curve" smooth="yes"/>
      <point x="1023" y="1108"/>
      <point x="1087" y="1091"/>
      <point x="1087" y="1091" type="curve"/>
      <point x="1087" y="869" type="line"/>
      <point x="1087" y="869"/>
      <point x="1000" y="886"/>
      <point x="974" y="886" type="curve" smooth="yes"/>
      <point x="923" y="886"/>
      <point x="898" y="853"/>
      <point x="862" y="812" type="curve"/>
      <point x="805.0" y="752.0"/>
      <point x="592" y="540"/>
      <point x="592" y="540" type="curve"/>
      <point x="1188" y="0" type="line"/>
      <point x="823" y="0" type="line"/>
      <point x="387" y="423" type="line"/>
      <point x="387" y="0" type="line"/>
      <point x="104" y="0" type="line"/>
      <point x="104" y="1098" type="line"/>
      <point x="387" y="1098" type="line"/>
    </contour>
    <contour>
      <point x="585" y="1098" type="move" name="top"/>
    </contour>
  </outline>
</glyph>
<glyph name="afii10077" format="1">
  <advance width="1245"/>
  <unicode hex="043B"/>
  <outline>
    <contour>
      <point x="168" y="1098" type="line"/>
      <point x="1143" y="1098" type="line"/>
      <point x="1143" y="1" type="line"/>
      <point x="860" y="1" type="line"/>
      <point x="860" y="880" type="line"/>
      <point x="451" y="880" type="line"/>
      <point x="451" y="377" type="line" smooth="yes"/>
      <point x="451.0" y="99.8285055161"/>
      <point x="267.742178935" y="-17.672808238"/>
      <point x="3.19097504425" y="-28.2143711994" type="curve" smooth="yes"/>
      <point x="-10.0078850661" y="-28.7403057362"/>
      <point x="-23.4090976715" y="-29.0"/>
      <point x="-37" y="-29" type="curve"/>
      <point x="-37" y="191" type="line"/>
      <point x="-9" y="196" type="line"/>
      <point x="147" y="214"/>
      <point x="168" y="244"/>
      <point x="168" y="416" type="curve" smooth="yes"/>
    </contour>
  </outline>
</glyph>
<glyph name="afii10079" format="1">
  <advance width="1219"/>
  <unicode hex="043D"/>
  <outline>
    <contour>
      <point x="104" y="1098" type="line"/>
      <point x="387" y="1098" type="line"/>
      <point x="387" y="699" type="line"/>
      <point x="839" y="699" type="line"/>
      <point x="839" y="1098" type="line"/>
      <point x="1122" y="1098" type="line"/>
      <point x="1122" y="0" type="line"/>
      <point x="839" y="0" type="line"/>
      <point x="839" y="487" type="line"/>
      <point x="387" y="487" type="line"/>
      <point x="387" y="0" type="line"/>
      <point x="104" y="0" type="line"/>
    </contour>
  </outline>
</glyph>
<glyph name="afii10081" format="1">
  <advance width="1209"/>
  <unicode hex="043F"/>
  <outline>
    <contour>
      <point x="104" y="1098" type="line"/>
      <point x="1111" y="1098" type="line"/>
      <point x="1111" y="0" type="line"/>
      <point x="828" y="0" type="line"/>
      <point x="828" y="884" type="line"/>
      <point x="387" y="884" type="line"/>
      <point x="387" y="0" type="line"/>
      <point x="104" y="0" type="line"/>
    </contour>
  </outline>
</glyph>
<glyph name="afii10084" format="1">
  <advance width="915"/>
  <unicode hex="0442"/>
  <outline>
    <contour>
      <point x="-1" y="1098" type="line"/>
      <point x="916" y="1098" type="line"/>
      <point x="916" y="907" type="line"/>
      <point x="603" y="907" type="line"/>
      <point x="603" y="0" type="line"/>
      <point x="320" y="0" type="line"/>
      <point x="320" y="907" type="line"/>
      <point x="-1" y="907" type="line"/>
    </contour>
  </outline>
</glyph>
<glyph name="afii10092" format="1">
  <advance width="1202"/>
  <unicode hex="044A"/>
  <outline>
    <contour>
      <point x="491" y="1098" type="line"/>
      <point x="491" y="707" type="line"/>
      <point x="747" y="707" type="line" smooth="yes"/>
      <point x="945" y="707"/>
      <point x="1144" y="603"/>
      <point x="1144" y="360" type="curve" smooth="yes"/>
      <point x="1144" y="136"/>
      <point x="982" y="0"/>
      <point x="762" y="0" type="curve" smooth="yes"/>
      <point x="209" y="0" type="line"/>
      <point x="209" y="891" type="line"/>
      <point x="-3" y="891" type="line"/>
      <point x="-3" y="1098" type="line"/>
    </contour>
    <contour>
      <point x="729" y="511" type="curve" smooth="yes"/>
      <point x="492" y="511" type="line"/>
      <point x="492" y="201" type="line"/>
      <point x="735" y="201" type="line" smooth="yes"/>
      <point x="832" y="201"/>
      <point x="891" y="277"/>
      <point x="891" y="362" type="curve" smooth="yes"/>
      <point x="891" y="438"/>
      <point x="837" y="511"/>
    </contour>
  </outline>
</glyph>
<glyph name="afii10093" format="1">
  <advance width="1513"/>
  <unicode hex="044B"/>
  <outline>
    <contour>
      <point x="1415" y="1098" type="line"/>
      <point x="1416" y="0" type="line"/>
      <point x="1132" y="0" type="line"/>
      <point x="1132" y="1098" type="line"/>
    </contour>
    <contour>
      <point x="787" y="359" type="curve" smooth="yes"/>
      <point x="787" y="434"/>
      <point x="733" y="504"/>
      <point x="625" y="504" type="curve" smooth="yes"/>
      <point x="387" y="504" type="line"/>
      <point x="387" y="201" type="line"/>
      <point x="631" y="201" type="line" smooth="yes"/>
      <point x="728" y="201"/>
      <point x="787" y="276"/>
    </contour>
    <contour>
      <point x="642" y="700" type="line" smooth="yes"/>
      <point x="840" y="700"/>
      <point x="1040" y="597"/>
      <point x="1040" y="357" type="curve" smooth="yes"/>
      <point x="1040" y="136"/>
      <point x="878" y="0"/>
      <point x="658" y="0" type="curve" smooth="yes"/>
      <point x="104" y="0" type="line"/>
      <point x="104" y="1098" type="line"/>
      <point x="386" y="1099" type="line"/>
      <point x="386" y="700" type="line"/>
    </contour>
  </outline>
</glyph>
<glyph name="afii10095" format="1">
  <advance width="991"/>
  <unicode hex="044D"/>
  <outline>
    <contour>
      <point x="375" y="-21" type="curve" smooth="yes"/>
      <point x="239" y="-21"/>
      <point x="149" y="13"/>
      <point x="55" y="74" type="curve"/>
      <point x="109" y="270" type="line"/>
      <point x="169" y="226"/>
      <point x="256" y="185"/>
      <point x="358" y="185" type="curve" smooth="yes"/>
      <point x="512" y="185"/>
      <point x="623" y="265"/>
      <point x="652" y="460" type="curve"/>
      <point x="146" y="460" type="line"/>
      <point x="146" y="648" type="line"/>
      <point x="653" y="648" type="line"/>
      <point x="625" y="842"/>
      <point x="506" y="909"/>
      <point x="364" y="909" type="curve" smooth="yes"/>
      <point x="267" y="909"/>
      <point x="159" y="861"/>
      <point x="114" y="828" type="curve"/>
      <point x="67" y="1022" type="line"/>
      <point x="152" y="1084"/>
      <point x="248" y="1117"/>
      <point x="396" y="1117" type="curve" smooth="yes"/>
      <point x="659" y="1117"/>
      <point x="931" y="954"/>
      <point x="931" y="572" type="curve" smooth="yes"/>
      <point x="931" y="171"/>
      <point x="694" y="-21"/>
    </contour>
  </outline>
</glyph>
<glyph name="afii10103" format="1">
  <advance width="527"/>
  <unicode hex="0456"/>
  <outline>
    <component base="i"/>
    <contour>
      <point x="264" y="1098" type="move" name="top"/>
    </contour>
  </outline>
</glyph>
<glyph name="uni2206" format="1">
  <advance width="1308"/>
  <unicode hex="2206"/>
  <outline>
    <contour>
      <point x="605" y="1271" type="curve" smooth="yes"/>
      <point x="595" y="1271"/>
      <point x="590" y="1264"/>
      <point x="590" y="1253" type="curve" smooth="yes"/>
      <point x="590" y="1226"/>
      <point x="614" y="1175"/>
      <point x="634" y="1119" type="curve"/>
      <point x="637" y="1120" type="line"/>
      <point x="647" y="1149" type="line"/>
      <point x="729" y="909" type="line" smooth="yes"/>
      <point x="766" y="801"/>
      <point x="812" y="687"/>
      <point x="847" y="588" type="curve"/>
      <point x="843" y="586" type="line"/>
      <point x="932" y="332" type="line"/>
      <point x="936" y="328"/>
      <point x="940" y="325"/>
      <point x="944" y="325" type="curve" smooth="yes"/>
      <point x="948" y="325"/>
      <point x="949" y="326"/>
      <point x="949" y="331" type="curve" smooth="yes"/>
      <point x="949" y="403"/>
      <point x="637" y="1222"/>
      <point x="620" y="1260" type="curve" smooth="yes"/>
      <point x="619" y="1264"/>
      <point x="613" y="1271"/>
    </contour>
    <contour>
      <point x="1288" y="117" type="line"/>
      <point x="1288" y="-20" type="line"/>
      <point x="14" y="-20" type="line"/>
      <point x="14" y="116" type="line"/>
      <point x="532" y="1459" type="line"/>
      <point x="773" y="1459" type="line"/>
    </contour>
  </outline>
</glyph>
<glyph name="approxequal" format="1">
  <advance width="1311"/>
  <unicode hex="2248"/>
  <outline>
    <contour>
      <point x="218" y="42" type="line"/>
      <point x="258" y="116"/>
      <point x="320" y="187"/>
      <point x="415" y="187" type="curve" smooth="yes"/>
      <point x="493" y="187"/>
      <point x="547" y="165"/>
      <point x="613" y="134" type="curve" smooth="yes"/>
      <point x="713" y="89"/>
      <point x="786" y="58"/>
      <point x="888" y="58" type="curve" smooth="yes"/>
      <point x="1036" y="58"/>
      <point x="1174" y="161"/>
      <point x="1227" y="251" type="curve"/>
      <point x="1151" y="399" type="line"/>
      <point x="1055" y="303"/>
      <point x="989" y="270"/>
      <point x="909" y="270" type="curve" smooth="yes"/>
      <point x="847" y="270"/>
      <point x="782" y="291"/>
      <point x="695" y="329" type="curve" smooth="yes"/>
      <point x="612" y="364"/>
      <point x="514" y="394"/>
      <point x="425" y="394" type="curve" smooth="yes"/>
      <point x="270" y="394"/>
      <point x="187" y="305"/>
      <point x="133" y="201" type="curve"/>
    </contour>
    <contour>
      <point x="218" y="460" type="line"/>
      <point x="258" y="534"/>
      <point x="320" y="605"/>
      <point x="415" y="605" type="curve" smooth="yes"/>
      <point x="493" y="605"/>
      <point x="547" y="583"/>
      <point x="613" y="552" type="curve" smooth="yes"/>
      <point x="713" y="507"/>
      <point x="786" y="476"/>
      <point x="888" y="476" type="curve" smooth="yes"/>
      <point x="1036" y="476"/>
      <point x="1174" y="579"/>
      <point x="1227" y="669" type="curve"/>
      <point x="1151" y="817" type="line"/>
      <point x="1055" y="721"/>
      <point x="989" y="688"/>
      <point x="909" y="688" type="curve" smooth="yes"/>
      <point x="847" y="688"/>
      <point x="782" y="709"/>
      <point x="695" y="747" type="curve" smooth="yes"/>
      <point x="612" y="782"/>
      <point x="514" y="812"/>
      <point x="425" y="812" type="curve" smooth="yes"/>
      <point x="270" y="812"/>
      <point x="187" y="723"/>
      <point x="133" y="619" type="curve"/>
    </contour>
  </outline>
</glyph>
